<svg width="100" height="100" viewBox="0 0 100 100" fill="none" xmlns="http://www.w3.org/2000/svg">
<path d="M15.4537 65V61.5739L24.5431 52.6634C25.4125 51.7855 26.1369 51.0057 26.7164 50.3239C27.296 49.642 27.7306 48.9815 28.0204 48.3423C28.3102 47.7031 28.4551 47.0213 28.4551 46.2969C28.4551 45.4702 28.2676 44.7628 27.8926 44.1747C27.5176 43.5781 27.002 43.1179 26.3457 42.794C25.6895 42.4702 24.9437 42.3082 24.1085 42.3082C23.2477 42.3082 22.4934 42.4872 21.8457 42.8452C21.198 43.1946 20.6951 43.6932 20.3372 44.3409C19.9877 44.9886 19.813 45.7599 19.813 46.6548H15.3002C15.3002 44.9929 15.6795 43.5483 16.438 42.321C17.1966 41.0937 18.2406 40.1435 19.5701 39.4702C20.9082 38.7969 22.4423 38.4602 24.1724 38.4602C25.9281 38.4602 27.4707 38.7884 28.8002 39.4446C30.1298 40.1009 31.161 41 31.894 42.142C32.6355 43.2841 33.0062 44.5881 33.0062 46.054C33.0062 47.0341 32.8187 47.9972 32.4437 48.9432C32.0687 49.8892 31.4082 50.9375 30.4622 52.0881C29.5247 53.2386 28.2079 54.6321 26.5119 56.2685L21.9991 60.858V61.0369H33.4025V65H15.4537ZM47.4906 65.4986C45.3855 65.4986 43.5787 64.9659 42.0701 63.9006C40.5701 62.8267 39.4153 61.2798 38.6056 59.2599C37.8045 57.2315 37.4039 54.7898 37.4039 51.9347C37.4125 49.0795 37.8173 46.6506 38.6184 44.6477C39.4281 42.6364 40.5829 41.1023 42.0829 40.0455C43.5914 38.9886 45.394 38.4602 47.4906 38.4602C49.5872 38.4602 51.3897 38.9886 52.8983 40.0455C54.4068 41.1023 55.5616 42.6364 56.3627 44.6477C57.1724 46.6591 57.5772 49.0881 57.5772 51.9347C57.5772 54.7983 57.1724 57.2443 56.3627 59.2727C55.5616 61.2926 54.4068 62.8352 52.8983 63.9006C51.3983 64.9659 49.5957 65.4986 47.4906 65.4986ZM47.4906 61.4972C49.127 61.4972 50.4181 60.6918 51.3642 59.081C52.3187 57.4616 52.796 55.0795 52.796 51.9347C52.796 49.8551 52.5787 48.108 52.144 46.6932C51.7093 45.2784 51.0957 44.2131 50.3031 43.4972C49.5105 42.7727 48.573 42.4105 47.4906 42.4105C45.8627 42.4105 44.5758 43.2202 43.6298 44.8395C42.6838 46.4503 42.2065 48.8153 42.198 51.9347C42.1895 54.0227 42.3983 55.7784 42.8244 57.2017C43.2591 58.625 43.8727 59.6989 44.6653 60.4233C45.4579 61.1392 46.3997 61.4972 47.4906 61.4972ZM75.8233 60.0909V58.7102C75.8233 57.696 76.0364 56.7628 76.4625 55.9105C76.8972 55.0582 77.5279 54.3722 78.3546 53.8523C79.1813 53.3324 80.1827 53.0724 81.3588 53.0724C82.5691 53.0724 83.5833 53.3324 84.4015 53.8523C85.2196 54.3636 85.8375 55.0455 86.2552 55.8977C86.6813 56.75 86.8944 57.6875 86.8944 58.7102V60.0909C86.8944 61.1051 86.6813 62.0384 86.2552 62.8906C85.829 63.7429 85.2026 64.429 84.3759 64.9489C83.5577 65.4688 82.552 65.7287 81.3588 65.7287C80.1657 65.7287 79.1557 65.4688 78.329 64.9489C77.5023 64.429 76.8759 63.7429 76.4498 62.8906C76.0321 62.0384 75.8233 61.1051 75.8233 60.0909ZM79.16 58.7102V60.0909C79.16 60.7642 79.3219 61.3821 79.6458 61.9446C79.9696 62.5071 80.5407 62.7884 81.3588 62.7884C82.1855 62.7884 82.7523 62.5114 83.0591 61.9574C83.3745 61.3949 83.5321 60.7727 83.5321 60.0909V58.7102C83.5321 58.0284 83.383 57.4062 83.0847 56.8438C82.7864 56.2727 82.2111 55.9872 81.3588 55.9872C80.5577 55.9872 79.9909 56.2727 79.6586 56.8438C79.3262 57.4062 79.16 58.0284 79.16 58.7102ZM62.5151 45.108V43.7273C62.5151 42.7045 62.7324 41.767 63.1671 40.9148C63.6017 40.0625 64.2324 39.3807 65.0591 38.8693C65.8858 38.3494 66.8873 38.0895 68.0634 38.0895C69.2651 38.0895 70.275 38.3494 71.0932 38.8693C71.9199 39.3807 72.5421 40.0625 72.9597 40.9148C73.3773 41.767 73.5861 42.7045 73.5861 43.7273V45.108C73.5861 46.1307 73.373 47.0682 72.9469 47.9205C72.5293 48.7642 71.9071 49.4418 71.0804 49.9531C70.2537 50.4645 69.248 50.7202 68.0634 50.7202C66.8617 50.7202 65.8475 50.4645 65.0208 49.9531C64.2026 49.4418 63.5804 48.7599 63.1543 47.9077C62.7282 47.0554 62.5151 46.1222 62.5151 45.108ZM65.8773 43.7273V45.108C65.8773 45.7898 66.035 46.4119 66.3503 46.9744C66.6742 47.5284 67.2452 47.8054 68.0634 47.8054C68.8816 47.8054 69.4441 47.5284 69.7509 46.9744C70.0662 46.4119 70.2239 45.7898 70.2239 45.108V43.7273C70.2239 43.0455 70.0748 42.4233 69.7765 41.8608C69.4782 41.2898 68.9071 41.0043 68.0634 41.0043C67.2537 41.0043 66.687 41.2898 66.3631 41.8608C66.0392 42.4318 65.8773 43.054 65.8773 43.7273ZM63.9725 65L81.9725 38.8182H85.1685L67.1685 65H63.9725Z" fill="#1F87FF"/>
<circle cx="50" cy="50" r="49" stroke="#1F87FF" stroke-width="2"/>
</svg>
