<svg width="25" height="19" viewBox="0 0 25 19" fill="none" xmlns="http://www.w3.org/2000/svg">
<g id="Group">
<path id="Vector" d="M20.8303 1.55593C19.2767 0.829058 17.6156 0.300797 15.8789 0C15.6656 0.385611 15.4164 0.904266 15.2446 1.31685C13.3985 1.03922 11.5693 1.03922 9.75716 1.31685C9.58539 0.904266 9.33055 0.385611 9.11536 0C7.37681 0.300797 5.71376 0.830999 4.16019 1.55978C1.02664 6.29499 0.177189 10.9126 0.601917 15.4646C2.68025 17.0166 4.69441 17.9595 6.67457 18.5764C7.16349 17.9035 7.59953 17.1882 7.97518 16.4344C7.25975 16.1626 6.57453 15.8271 5.92707 15.4376C6.09884 15.3104 6.26686 15.1773 6.42918 15.0404C10.3782 16.8875 14.6689 16.8875 18.5707 15.0404C18.735 15.1773 18.903 15.3104 19.0728 15.4376C18.4235 15.829 17.7364 16.1645 17.021 16.4363C17.3966 17.1882 17.8308 17.9055 18.3216 18.5783C20.3036 17.9614 22.3197 17.0186 24.398 15.4646C24.8964 10.1876 23.5467 5.61246 20.8303 1.55593ZM8.51318 12.6651C7.32772 12.6651 6.35555 11.5585 6.35555 10.2108C6.35555 8.86309 7.30696 7.75449 8.51318 7.75449C9.71942 7.75449 10.6916 8.86115 10.6708 10.2108C10.6727 11.5585 9.71942 12.6651 8.51318 12.6651ZM16.4867 12.6651C15.3013 12.6651 14.3291 11.5585 14.3291 10.2108C14.3291 8.86309 15.2805 7.75449 16.4867 7.75449C17.693 7.75449 18.6651 8.86115 18.6444 10.2108C18.6444 11.5585 17.693 12.6651 16.4867 12.6651Z" fill="white"/>
</g>
</svg>
