<svg width="100" height="100" viewBox="0 0 101 101" fill="none" xmlns="http://www.w3.org/2000/svg">
<path d="M61.426 21.7818C60.4729 20.8286 58.926 20.8286 57.9729 21.7818L56.3811 23.3736C54.4182 25.3364 52.9866 27.688 52.1487 30.2525C49.6077 27.3853 46.762 26.1294 46.5471 26.0376C45.3069 25.5064 43.8655 26.0786 43.3362 27.3189C42.805 28.5591 43.3733 29.9907 44.6135 30.522C44.885 30.6431 51.2874 33.5572 51.2874 41.0181C51.2874 42.3657 52.3811 43.4595 53.7288 43.4595C55.0764 43.4595 56.1702 42.3657 56.1702 41.0181V35.6724C56.1702 32.3306 57.471 29.188 59.8342 26.8247L61.426 25.2349C62.3792 24.2818 62.3792 22.7349 61.426 21.7818Z" fill="url(#paint0_linear_914_1388)"/>
<path d="M75.7402 7.4654C73.7598 5.48493 70.6562 5.03571 67 6.19977C63.916 7.18219 60.709 9.23297 57.9727 11.9693C56.2012 13.7408 55.2266 16.0963 55.2266 18.6002C55.2266 21.1041 56.2012 23.4595 57.9727 25.231C59.7441 27.0025 62.0996 27.9771 64.6035 27.9771C67.1074 27.9771 69.4629 27.0025 71.2344 25.231C73.9707 22.4927 76.0215 19.2877 77.0039 16.2017C78.1699 12.5474 77.7207 9.44391 75.7383 7.46149L75.7402 7.4654Z" fill="url(#paint1_linear_914_1388)"/>
<path d="M38.2852 10.9753C34.6309 9.80927 31.5274 10.2585 29.545 12.2409C27.5645 14.2214 27.1153 17.3249 28.2794 20.9792C29.2637 24.0632 31.3126 27.2702 34.0489 30.0085C35.8204 31.78 38.1758 32.7546 40.6798 32.7546C43.1837 32.7546 45.5391 31.78 47.3106 30.0085C49.0821 28.237 50.0567 25.8815 50.0567 23.3776C50.0567 20.8737 49.0821 18.5182 47.3106 16.7468C44.5723 14.0085 41.3673 11.9597 38.2833 10.9772L38.2852 10.9753Z" fill="url(#paint2_linear_914_1388)"/>
<path d="M78.2988 38.5769H29.1582C23.0918 38.5769 18.1543 43.5124 18.1543 49.5808C18.1543 55.6491 23.0898 60.5847 29.1582 60.5847H78.2988C84.3652 60.5847 89.3027 55.6491 89.3027 49.5808C89.3027 43.5124 84.3672 38.5769 78.2988 38.5769Z" fill="url(#paint3_linear_914_1388)"/>
<path d="M71.8418 55.6997H22.7012C16.6348 55.6997 11.6973 60.6353 11.6973 66.7036C11.6973 72.772 16.6328 77.7075 22.7012 77.7075H71.8418C77.9082 77.7075 82.8457 72.772 82.8457 66.7036C82.8457 60.6353 77.9102 55.6997 71.8418 55.6997Z" fill="url(#paint4_linear_914_1388)"/>
<path d="M78.2988 72.823H29.1582C23.0918 72.823 18.1543 77.7585 18.1543 83.8269C18.1543 89.8952 23.0898 94.8308 29.1582 94.8308H78.2988C84.3652 94.8308 89.3027 89.8952 89.3027 83.8269C89.3027 77.7585 84.3672 72.823 78.2988 72.823Z" fill="url(#paint5_linear_914_1388)"/>
<defs>
<linearGradient id="paint0_linear_914_1388" x1="47.2829" y1="51.6829" x2="51.3286" y2="23.7955" gradientUnits="userSpaceOnUse">
<stop stop-color="#0097FF"/>
<stop offset="1" stop-color="#62E990"/>
</linearGradient>
<linearGradient id="paint1_linear_914_1388" x1="60.1159" y1="36.2074" x2="63.5719" y2="8.13485" gradientUnits="userSpaceOnUse">
<stop stop-color="#0097FF"/>
<stop offset="1" stop-color="#62E990"/>
</linearGradient>
<linearGradient id="paint2_linear_914_1388" x1="32.5345" y1="40.9861" x2="35.9918" y2="12.9096" gradientUnits="userSpaceOnUse">
<stop stop-color="#0097FF"/>
<stop offset="1" stop-color="#62E990"/>
</linearGradient>
<linearGradient id="paint3_linear_914_1388" x1="53.7321" y1="60.5847" x2="53.7321" y2="38.5769" gradientUnits="userSpaceOnUse">
<stop stop-color="#00AEFF"/>
<stop offset="1" stop-color="#61EEFF"/>
</linearGradient>
<linearGradient id="paint4_linear_914_1388" x1="47.2715" y1="93.7876" x2="40.2412" y2="49.3338" gradientUnits="userSpaceOnUse">
<stop stop-color="#0068C0"/>
<stop offset="1" stop-color="#00AEFF"/>
</linearGradient>
<linearGradient id="paint5_linear_914_1388" x1="53.725" y1="94.9104" x2="53.725" y2="72.8717" gradientUnits="userSpaceOnUse">
<stop stop-color="#0068C0"/>
<stop offset="1" stop-color="#00AEFF"/>
</linearGradient>
</defs>
</svg>
