<svg width="71" height="70" viewBox="0 0 71 70" fill="none" xmlns="http://www.w3.org/2000/svg">
<path d="M57.375 52.5C56.1653 52.5 55.1875 53.48 55.1875 54.6875V63.4375H15.8125V6.5625H37.6875V21.875C37.6875 23.0825 38.6653 24.0625 39.875 24.0625H55.1875V32.8125C55.1875 34.02 56.1653 35 57.375 35C58.5847 35 59.5625 34.02 59.5625 32.8125V22.0872C59.5691 22.015 59.6063 21.9494 59.6063 21.875C59.6063 21.1378 59.2431 20.4859 58.6853 20.09L41.4216 2.82844C41.2334 2.6425 41.0125 2.50688 40.7828 2.40188C40.715 2.36906 40.645 2.35156 40.5706 2.3275C40.3913 2.26625 40.2075 2.22906 40.0172 2.21813C39.9691 2.21375 39.9231 2.1875 39.875 2.1875H13.625C12.4153 2.1875 11.4375 3.1675 11.4375 4.375V65.625C11.4375 66.8325 12.4153 67.8125 13.625 67.8125H57.375C58.5847 67.8125 59.5625 66.8325 59.5625 65.625V54.6875C59.5625 53.48 58.5847 52.5 57.375 52.5ZM42.0625 19.6875V9.65562L52.0944 19.6875H42.0625Z" fill="white"/>
<path d="M67.7219 33.506C66.8928 32.6222 65.5125 32.5785 64.6287 33.4032L42.745 53.8782L32.6191 44.4019C31.7353 43.5751 30.3528 43.621 29.5259 44.5047C28.7012 45.3863 28.7472 46.771 29.6287 47.5957L41.2509 58.4697C41.6709 58.8635 42.2091 59.0604 42.7472 59.0604C43.2853 59.0604 43.8212 58.8635 44.2434 58.4697L67.6234 36.5947C68.5028 35.7722 68.5466 34.3876 67.7219 33.506Z" fill="white"/>
</svg>
