<svg width="70" height="70" viewBox="0 0 70 70" fill="none" xmlns="http://www.w3.org/2000/svg">
<path d="M42.4556 45.3473L41.127 46.7458C41.127 46.7458 37.9695 50.0703 29.3507 40.9962C20.732 31.9222 23.8895 28.598 23.8895 28.598L24.7261 27.7172C26.7869 25.5476 26.9812 22.0643 25.1832 19.5214L21.5053 14.3195C19.28 11.1721 14.9799 10.7564 12.4292 13.4417L7.85123 18.2615C6.58651 19.593 5.73898 21.3191 5.84177 23.2338C6.1047 28.1324 8.19791 38.6719 19.8781 50.9692C32.2645 64.0096 43.8865 64.5279 48.6392 64.0589C50.1425 63.9104 51.4497 63.0999 52.5032 61.9907L56.6466 57.6285C59.4434 54.6841 58.6548 49.6363 55.0763 47.5765L49.504 44.369C47.1543 43.0166 44.2919 43.4138 42.4556 45.3473Z" fill="#1F87FF"/>
<path d="M49.5833 35.0002C57.6374 35.0002 64.1667 28.471 64.1667 20.4168C64.1667 12.3627 57.6374 5.8335 49.5833 5.8335C41.5292 5.8335 35 12.3627 35 20.4168C35 22.7497 35.5477 24.9546 36.5216 26.91C36.7806 27.4297 36.8667 28.0236 36.7168 28.5844L35.8482 31.8306C35.471 33.24 36.7602 34.5291 38.1695 34.152L41.4158 33.2834C41.9767 33.1335 42.5705 33.2195 43.0902 33.4785C45.0456 34.4524 47.2506 35.0002 49.5833 35.0002Z" fill="#1F87FF"/>
</svg>
