<svg width="22" height="24" viewBox="0 0 22 24" fill="none" xmlns="http://www.w3.org/2000/svg">
<path d="M9.39091 5.15072C10.8134 5.15072 11.9665 3.99759 11.9665 2.57494C11.9665 1.1527 10.8134 0 9.39091 0C7.96886 0 6.81573 1.1527 6.81573 2.57494C6.81578 3.99759 7.96886 5.15072 9.39091 5.15072Z" fill="#FEFEFE"/>
<path d="M21.3426 21.8056L17.5566 19.3852L14.506 14.5922L13.502 8.92631L16.7692 8.6227L19.5805 10.4409C19.9582 10.685 20.4569 10.616 20.7532 10.2783L20.7694 10.2595C21.0986 9.88523 21.0637 9.31551 20.691 8.98462L18.1749 6.74779C17.9032 6.50681 17.5566 6.36754 17.1938 6.35395L10.9155 6.00393C10.7222 5.99324 10.5421 6.00773 10.5421 6.00773C10.4612 6.01457 10.3796 6.02432 10.2981 6.03801C9.84079 6.11676 9.43031 6.30581 9.08901 6.57281L4.47248 9.36023L1.56454 7.73357C1.11299 7.48106 0.542993 7.63092 0.27454 8.07295L0.23793 8.13299C0.104899 8.35228 0.0646335 8.61496 0.126368 8.86326C0.187915 9.11193 0.346305 9.32568 0.566477 9.45684L4.03176 11.5251C4.46292 11.7827 4.98815 11.829 5.45807 11.6515L8.38195 10.5461L9.35535 14.4713L5.24859 14.4551C4.70371 14.4534 4.18635 14.6953 3.83868 15.1151C3.49143 15.535 3.35024 16.0881 3.45393 16.6234L4.54209 22.2263C4.6626 22.8467 5.25065 23.2623 5.87596 23.1686L5.9226 23.1614C6.54131 23.0685 6.9801 22.5095 6.92282 21.8865L6.55429 17.8718L12.2688 18.0524L14.9455 20.7491C15.3181 21.1251 15.7439 21.4449 16.2085 21.6982L20.1844 23.87C20.7413 24.1578 21.4265 23.9517 21.7322 23.4041L21.7544 23.3658C22.0592 22.8194 21.8774 22.1301 21.3426 21.8056Z" fill="#FEFEFE"/>
</svg>
