<svg width="70" height="70" viewBox="0 0 70 70" fill="none" xmlns="http://www.w3.org/2000/svg">
<path d="M46.6666 32.0835C51.5083 32.0835 55.3875 28.1752 55.3875 23.3335C55.3875 18.4918 51.5083 14.5835 46.6666 14.5835C41.825 14.5835 37.9166 18.4918 37.9166 23.3335C37.9166 28.1752 41.825 32.0835 46.6666 32.0835ZM23.3333 32.0835C28.175 32.0835 32.0541 28.1752 32.0541 23.3335C32.0541 18.4918 28.175 14.5835 23.3333 14.5835C18.4916 14.5835 14.5833 18.4918 14.5833 23.3335C14.5833 28.1752 18.4916 32.0835 23.3333 32.0835ZM23.3333 37.9168C16.5375 37.9168 2.91663 41.3293 2.91663 48.1252V55.4168H43.75V48.1252C43.75 41.3293 30.1291 37.9168 23.3333 37.9168ZM46.6666 37.9168C45.8208 37.9168 44.8583 37.9752 43.8375 38.0627C47.2208 40.5127 49.5833 43.8085 49.5833 48.1252V55.4168H67.0833V48.1252C67.0833 41.3293 53.4625 37.9168 46.6666 37.9168Z" fill="#1F87FF"/>
</svg>
