<svg width="100" height="100" viewBox="0 0 100 100" fill="none" xmlns="http://www.w3.org/2000/svg">
<path d="M58.5938 52.0938L65.2188 58.7188L71.8437 60.9375L76.2656 56.5156L69.6406 54.3125L63.8906 48.5625L60.7969 49.8906L58.5938 52.0938Z" fill="#0A7CFF"/>
<path d="M41.4062 91.4062L47.6562 69.5312H82.0312L75.7812 91.4062" fill="#8B8C89"/>
<path d="M47.6562 48.7969C48.1094 49.0625 48.6562 49.2188 49.2187 49.2188C50.9375 49.2188 52.3437 47.8125 52.3437 46.0938C52.3437 44.375 50.9375 42.9688 49.2187 42.9688C48.5625 42.9688 47.9531 43.1719 47.4375 43.5313" fill="#0A7CFF"/>
<path d="M39.1875 60.2188L34.5 62.2344C32.9219 62.9063 31.1406 62.9063 29.5781 62.2344L24.8906 60.2188C22.5938 59.2344 21.1094 56.9688 21.1094 54.4688V46.0938C21.1094 40.9219 25.3125 36.7188 30.4844 36.7188H33.6094C38.7812 36.7188 42.9844 40.9219 42.9844 46.0938V54.4688C42.9844 56.9688 41.5 59.2344 39.2031 60.2188H39.1875Z" fill="#DDA15E"/>
<path d="M85.6062 41.9778C87.4368 40.1472 83.4795 33.222 76.7674 26.5099C70.0553 19.7977 63.13 15.8405 61.2994 17.671C59.4688 19.5016 63.4261 26.4269 70.1383 33.139C76.8504 39.8511 83.7756 43.8084 85.6062 41.9778Z" fill="#A3CEF1"/>
<path d="M63.2812 76.5625C64.1406 76.5625 64.8438 77.2656 64.8438 78.125C64.8438 78.9844 64.1406 79.6875 63.2812 79.6875V76.5625Z" fill="#A3CEF1"/>
<path d="M16.4062 48.7969C15.9531 49.0625 15.4062 49.2188 14.8438 49.2188C13.125 49.2188 11.7188 47.8125 11.7188 46.0938C11.7188 44.375 13.125 42.9688 14.8438 42.9688C15.5 42.9688 16.1094 43.1719 16.625 43.5313" fill="#0A7CFF"/>
<path d="M36.7188 64.8438C36.7188 67.4375 34.625 69.5313 32.0312 69.5313C29.4375 69.5313 27.3438 67.4375 27.3438 64.8438V61.2656L29.5625 62.2188C31.1406 62.9063 32.9219 62.9063 34.5 62.2188L36.7188 61.2656V64.8438Z" fill="#BC6C25"/>
<path d="M41.4062 91.4062L47.6562 69.5312H52.5625C49.7188 66.6406 45.7656 64.8438 41.4062 64.8438H36.7188C36.7188 67.4375 34.625 69.5312 32.0312 69.5312C29.4375 69.5312 27.3438 67.4375 27.3438 64.8438H22.6562C14.0312 64.8438 7.03125 71.8438 7.03125 80.4688V91.4062H41.4062Z" fill="#0A7CFF"/>
<path d="M30.4688 91.4062V88.2812C30.4688 86.5625 29.0625 85.1562 27.3438 85.1562H24.2188V91.4062H30.4688Z" fill="#DDA15E"/>
<path d="M32.0312 91.4062H28.9062V88.2812C28.9062 87.4219 28.2031 86.7188 27.3438 86.7188H16.4062C15.5469 86.7188 14.8438 86.0156 14.8438 85.1563V78.9063C14.8438 78.4844 15.0156 78.0938 15.2969 77.7969L17.3125 75.7813C17.9219 75.1719 18.9062 75.1719 19.5156 75.7813C20.125 76.3906 20.125 77.375 19.5156 77.9844L17.9531 79.5469V83.5938H27.3281C29.9219 83.5938 32.0156 85.6875 32.0156 88.2812V91.4062H32.0312Z" fill="#6096BA"/>
<path d="M82.0312 89.8438H3.90625V92.9688H82.0312V89.8438Z" fill="#A3CEF1"/>
<path d="M42.0156 42C41.125 41.6406 40.0938 41.4062 38.7969 41.4062C32.0312 41.4062 32.0312 47.6562 25.25 47.6562C23.4844 47.6562 22.1719 47.2344 21.0938 46.6094V46.0938C21.0938 40.9219 25.2969 36.7188 30.4688 36.7188H33.5938C37.2969 36.7188 40.5 38.875 42.0156 42Z" fill="#0A7CFF"/>
<path d="M65.5 27.9219C68.2188 27.0312 71.2969 27.6719 73.4531 29.8281C75.6094 31.9844 76.2344 35.0625 75.3594 37.7812C73.6719 36.4531 71.9063 34.8906 70.1406 33.1406C68.3906 31.375 66.8281 29.6094 65.5 27.9219Z" fill="#FFBC0A"/>
<path d="M51.3594 43.75L60.8906 18.6719C60.6094 21.375 64.3594 27.3281 70.1563 33.1406C75.9688 38.9375 81.9219 42.6875 84.6094 42.4063H84.625L60.1719 51.9219L51.375 43.75H51.3594Z" fill="#6096BA"/>
<path d="M83.5938 24.2188H80.4688C80.4688 23.3594 79.7656 22.6562 78.9062 22.6562V19.5312C81.4844 19.5312 83.5938 21.6406 83.5938 24.2188Z" fill="#F5DD90"/>
<path d="M89.8438 24.2188H86.7188C86.7188 19.9062 83.2188 16.4062 78.9062 16.4062V13.2812C84.9375 13.2812 89.8438 18.1875 89.8438 24.2188Z" fill="#F5DD90"/>
<path d="M96.0938 24.2188H92.9688C92.9688 16.4688 86.6562 10.1562 78.9062 10.1562V7.03125C88.3906 7.03125 96.0938 14.7344 96.0938 24.2188Z" fill="#F5DD90"/>
<path d="M49.2656 42.9687L50.2656 41.9687C50.875 41.3594 51.8594 41.3594 52.4688 41.9687L61.3125 50.8125C61.9219 51.4219 61.9219 52.4062 61.3125 53.0312L59.0937 55.2344C58.4844 55.8437 57.5 55.8437 56.8906 55.2344L50.5625 48.9062C51.6094 48.4062 52.3437 47.3281 52.3437 46.0937C52.3437 44.3906 50.9688 43 49.2656 42.9687Z" fill="#FFBC0A"/>
<path d="M47.6563 48.7969V51.0625C47.6563 51.7969 47.1562 52.4219 46.4688 52.5781C46.75 53.5469 47.2813 54.4687 48.0469 55.2344C50.4844 57.6719 54.4531 57.6719 56.8906 55.2344L50.5625 48.9062C50.1563 49.1094 49.7031 49.2188 49.2188 49.2188C48.6563 49.2188 48.1094 49.0625 47.6563 48.7969Z" fill="#6096BA"/>
<path d="M42.9688 53.2812L46.4063 52.5938C47.125 52.4531 47.6562 51.8125 47.6562 51.0625V46.0938C47.6562 41.7812 45.9062 37.875 43.0781 35.0469C40.25 32.2188 36.3438 30.4688 32.0312 30.4688C23.4062 30.4688 16.4062 37.4688 16.4062 46.0938V50.7812C16.4062 51.6406 17.1094 52.3438 17.9688 52.3438H21.0938V46.0938C21.0938 40.9219 25.2969 36.7188 30.4688 36.7188H33.5938C38.7656 36.7188 42.9688 40.9219 42.9688 46.0938V53.2812Z" fill="#E7ECEF"/>
<path d="M32.0312 55.4688C31.8594 54.6251 32.4063 53.797 33.25 53.6251L46.0938 51.0626V46.5938C46.0938 39.1095 40.4531 32.5626 33 32.0626C24.8125 31.5157 17.9688 38.0157 17.9688 46.0938V50.7813H21.0938V53.9063H17.9688C16.25 53.9063 14.8438 52.5001 14.8438 50.7813V46.5938C14.8438 37.6563 21.4688 29.8126 30.375 28.9845C40.5938 28.0157 49.2188 36.0626 49.2188 46.0938V51.0626C49.2188 52.547 48.1719 53.8282 46.7031 54.1251L33.8594 56.6876C33.0156 56.8595 32.1875 56.3126 32.0156 55.4688H32.0312Z" fill="#0A7CFF"/>
</svg>
