<svg width="70" height="70" viewBox="0 0 70 70" fill="none" xmlns="http://www.w3.org/2000/svg">
<path fill-rule="evenodd" clip-rule="evenodd" d="M11.6667 14.5835V55.4168C11.6667 60.2494 15.5842 64.1668 20.4167 64.1668H49.5834C54.416 64.1668 58.3334 60.2494 58.3334 55.4168V26.2502C58.3334 21.4177 54.416 17.5002 49.5834 17.5002H14.5834C12.9725 17.5002 11.6667 16.1943 11.6667 14.5835ZM21.1459 35.0002C21.1459 33.7921 22.1252 32.8127 23.3334 32.8127H46.6667C47.8748 32.8127 48.8542 33.7921 48.8542 35.0002C48.8542 36.2082 47.8748 37.1877 46.6667 37.1877H23.3334C22.1252 37.1877 21.1459 36.2082 21.1459 35.0002ZM21.1459 45.2085C21.1459 44.0004 22.1252 43.021 23.3334 43.021H39.375C40.5831 43.021 41.5625 44.0004 41.5625 45.2085C41.5625 46.4166 40.5831 47.396 39.375 47.396H23.3334C22.1252 47.396 21.1459 46.4166 21.1459 45.2085Z" fill="#1F87FF"/>
<path d="M12.8589 11.921C13.8753 12.3768 14.5833 13.3975 14.5833 14.5836H49.5833C50.5904 14.5836 51.5678 14.7112 52.5 14.9511V12.5595C52.5 9.00965 49.3558 6.2828 45.8418 6.78482L14.3488 11.2838C13.7874 11.364 13.2787 11.5903 12.8589 11.921Z" fill="#1F87FF"/>
</svg>
