<svg width="71" height="70" viewBox="0 0 71 70" fill="none" xmlns="http://www.w3.org/2000/svg">
<g id="How It&#194;&#160;Works icon" clip-path="url(#clip0_1306_1695)">
<path id="Vector" d="M69.2051 49.9042H68.2193C67.5076 49.9042 66.9243 49.3209 66.9243 48.6121C66.9243 48.2505 67.0789 47.9238 67.3122 47.6905L68.0005 47.005C68.5051 46.5005 68.5051 45.6692 68.0005 45.1676L66.1718 43.3359C65.6672 42.8313 64.8359 42.8313 64.3343 43.3359L63.6693 43.998C63.4359 44.2605 63.0976 44.4121 62.7243 44.4121C62.0126 44.4121 61.4293 43.8288 61.4293 43.1171V42.1313C61.4293 41.4196 60.8459 40.8363 60.1343 40.8363H57.5384C56.8297 40.8363 56.2464 41.4196 56.2464 42.1313V43.1171C56.2464 43.8288 55.663 44.4121 54.9514 44.4121C54.5722 44.4121 54.2368 44.2576 54.0034 43.998L53.3414 43.3359C52.8368 42.8313 52.0055 42.8313 51.5039 43.3359L49.6722 45.1646C49.1676 45.6692 49.1676 46.5005 49.6722 47.0021C49.9172 47.2501 50.1914 47.4834 50.4247 47.743C50.658 48.0142 50.7455 48.2476 50.7455 48.6121C50.7455 49.3238 50.1622 49.9071 49.4534 49.9071H48.4676C47.7559 49.9071 47.1726 50.4905 47.1726 51.2021V53.798C47.1726 54.5067 47.7559 55.0901 48.4676 55.0901H49.4534C50.1651 55.0901 50.7484 55.6734 50.7484 56.3851C50.7484 56.7496 50.6551 56.983 50.4218 57.2601C50.1884 57.5167 49.9172 57.7501 49.6693 57.9951C49.1647 58.4996 49.1647 59.3309 49.6693 59.8326L51.498 61.6642C52.0026 62.1688 52.8339 62.1688 53.3355 61.6642L54.0005 61.0021C54.2339 60.7396 54.5722 60.588 54.9455 60.588C55.6543 60.588 56.2376 61.1713 56.2376 61.8859V62.8717C56.2376 63.5834 56.8209 64.1667 57.5326 64.1667H60.1284C60.8372 64.1667 61.4205 63.5834 61.4205 62.8717V61.8859C61.4205 61.1742 62.0039 60.5909 62.7155 60.5909C63.0947 60.5909 63.4272 60.7484 63.6605 61.008L64.3226 61.67C64.8272 62.1746 65.6584 62.1746 66.1601 61.67L67.9918 59.8413C68.4964 59.3367 68.4964 58.5055 67.9918 58.0038L67.3034 57.3125C67.0701 57.0792 66.9155 56.7584 66.9155 56.3909C66.9155 55.6792 67.4989 55.0959 68.2105 55.0959H69.1964C69.908 55.0959 70.4914 54.5125 70.4914 53.8009V51.2051C70.4914 50.5051 69.908 49.9217 69.1964 49.9217L69.2051 49.9042ZM58.8334 56.3909C56.6809 56.3909 54.9455 54.6525 54.9455 52.503C54.9455 50.3505 56.6839 48.615 58.8334 48.615C60.983 48.615 62.7214 50.3534 62.7214 52.503C62.7214 54.6555 60.9859 56.3909 58.8334 56.3909Z" fill="white"/>
<path id="Vector_2" d="M64.6667 11.6667H38.4167C38.4167 8.45837 35.8208 5.86254 32.6125 5.83337H6.33333C3.125 5.83337 0.5 8.45837 0.5 11.6667V58.3334C0.5 61.5417 3.125 64.1667 6.33333 64.1667H38.4167C40.0208 64.1667 41.3333 62.8542 41.3333 61.25C41.3333 59.6459 40.0208 58.3334 38.4167 58.3334H7.79167C6.975 58.3334 6.33333 57.6917 6.33333 56.875V13.125C6.33333 12.3084 6.975 11.6667 7.79167 11.6667H31.125C31.9417 11.6667 32.5833 12.3084 32.5833 13.125V23.3334C32.5833 26.5417 35.2083 29.1667 38.4167 29.1667H63.2083C64.025 29.1667 64.6667 29.8084 64.6667 30.625V32.0834C64.6667 33.6875 65.9792 35 67.5833 35C69.1875 35 70.5 33.6875 70.5 32.0834V17.3834C70.4417 14.2334 67.8458 11.6667 64.6667 11.6667ZM63.2083 23.3334H39.875C39.0583 23.3334 38.4167 22.6917 38.4167 21.875V18.9584C38.4167 18.1417 39.0583 17.5 39.875 17.5H63.2083C64.025 17.5 64.6667 18.1417 64.6667 18.9584V21.875C64.6667 22.6917 64.025 23.3334 63.2083 23.3334Z" fill="white"/>
</g>
<defs>
<clipPath id="clip0_1306_1695">
<rect width="70" height="70" fill="white" transform="translate(0.5)"/>
</clipPath>
</defs>
</svg>
