<svg width="100" height="100" viewBox="0 0 100 100" fill="none" xmlns="http://www.w3.org/2000/svg">
<path d="M50.9607 44.8231H38.5822C37.0244 44.8231 35.7617 43.5603 35.7617 42.0026V29.4938C35.7617 27.9364 37.0244 26.6733 38.5822 26.6733C40.14 26.6733 41.4027 27.9362 41.4027 29.4938V39.1823H50.9609C52.5184 39.1823 53.7814 40.4452 53.7814 42.0028C53.7812 43.5601 52.5186 44.8231 50.9607 44.8231Z" fill="#0A7CFF"/>
<path d="M44.781 10.7314H32.1231C29.9478 10.7314 28.1675 8.95151 28.1675 6.77573C28.1675 4.60034 29.9474 2.82007 32.1231 2.82007H44.781C46.9565 2.82007 48.7366 4.59995 48.7366 6.77573C48.7366 8.95132 46.9565 10.7314 44.781 10.7314Z" fill="#CEE8FA"/>
<path d="M44.7808 13.5521H32.1229C28.3868 13.5521 25.3472 10.5125 25.3472 6.77637C25.3472 3.03965 28.3868 0 32.1229 0H44.7808C48.5169 0 51.5565 3.03965 51.5565 6.77598C51.5567 10.5123 48.5169 13.5521 44.7808 13.5521ZM32.1229 5.64082C31.5075 5.64082 30.988 6.16094 30.988 6.77598C30.988 7.39102 31.5077 7.91094 32.1229 7.91094H44.7808C45.3962 7.91094 45.9157 7.39121 45.9157 6.77598C45.9157 6.16094 45.3962 5.64082 44.7808 5.64082H32.1229Z" fill="#0A7CFF"/>
<path d="M67.4959 97.1778C80.8639 97.1778 91.7008 86.3409 91.7008 72.9729C91.7008 59.605 80.8639 48.7681 67.4959 48.7681C54.1279 48.7681 43.291 59.605 43.291 72.9729C43.291 86.3409 54.1279 97.1778 67.4959 97.1778Z" fill="#CEE8FA"/>
<path d="M67.4966 99.9999C52.5942 99.9999 40.4702 87.8757 40.4702 72.9731C40.4702 58.0706 52.5944 45.9468 67.4966 45.9468C82.3991 45.9468 94.5233 58.0706 94.5233 72.9731C94.5233 87.8757 82.3991 99.9999 67.4966 99.9999ZM67.4966 51.5874C55.7044 51.5874 46.111 61.1812 46.111 72.9729C46.111 84.7653 55.7044 94.3587 67.4966 94.3587C79.289 94.3587 88.8823 84.7649 88.8823 72.9728C88.8825 61.181 79.2892 51.5874 67.4966 51.5874Z" fill="#0A7CFF"/>
<path d="M31.3736 74.1404C31.1551 74.1404 30.933 74.115 30.7113 74.0617C23.6375 72.359 17.2285 68.2734 12.6656 62.5566C8.02969 56.7482 5.47656 49.4488 5.47656 42.0025C5.47656 23.8199 20.2693 9.02734 38.4521 9.02734C46.3025 9.02734 53.908 11.833 59.8676 16.9281C65.7594 21.9654 69.7037 28.9295 70.9738 36.5369C71.2303 38.0732 70.1926 39.5268 68.6562 39.7832C67.1223 40.0391 65.6666 39.0021 65.41 37.4656C63.2047 24.2559 51.8668 14.6682 38.4521 14.6682C23.3799 14.6682 11.1174 26.9305 11.1174 42.0025C11.1174 54.6859 19.7174 65.6137 32.031 68.5773C33.5457 68.942 34.4777 70.465 34.1131 71.9797C33.8023 73.2721 32.6471 74.1404 31.3736 74.1404Z" fill="#0A7CFF"/>
<path d="M66.535 83.575C62.4865 83.4399 59.1807 81.3483 59.1807 79.1893C59.1807 78.0424 60.1926 76.3553 61.4748 76.3553C62.8914 76.3553 64.0385 78.3459 66.535 78.7842V73.319C63.4314 72.1381 59.7877 70.6875 59.7877 66.3692C59.7877 62.0846 62.959 60.027 66.535 59.5209V58.576C66.535 58.1036 67.0748 57.6653 67.8172 57.6653C68.458 57.6653 69.099 58.1038 69.099 58.576V59.4194C71.1906 59.4868 75.1379 60.0266 75.1379 62.3543C75.1379 63.2651 74.5307 65.1209 73.0463 65.1209C71.933 65.1209 71.292 64.0417 69.099 63.8727V68.7983C72.1691 69.9452 75.7447 71.5307 75.7447 76.0852C75.7447 80.2688 73.0461 82.7989 69.099 83.4397V84.418C69.099 84.8905 68.4582 85.3288 67.8172 85.3288C67.0748 85.3288 66.535 84.8903 66.535 84.418V83.575ZM66.8723 67.9891V63.9749C65.3541 64.2784 64.7133 65.0541 64.7133 65.8639C64.7133 66.842 65.5904 67.4493 66.8723 67.9891ZM68.7617 74.2301V78.7506C69.9088 78.4807 70.8197 77.8399 70.8197 76.6252C70.8195 75.512 69.9762 74.8038 68.7617 74.2301Z" fill="#0A7CFF"/>
<path d="M58.4283 22.236C57.7062 22.236 56.9847 21.9604 56.4339 21.4099C55.3326 20.3085 55.3326 18.5229 56.4339 17.421L61.3451 12.5095C62.4462 11.4083 64.232 11.4083 65.3339 12.5095C66.4353 13.6108 66.4353 15.3964 65.3339 16.4983L60.4228 21.4099C59.872 21.9604 59.15 22.236 58.4283 22.236Z" fill="#0A7CFF"/>
</svg>
