<svg width="71" height="70" viewBox="0 0 71 70" fill="none" xmlns="http://www.w3.org/2000/svg">
<g id="How It&#194;&#160;Works icon" clip-path="url(#clip0_1306_1705)">
<path id="Path 45" d="M22.375 48.125C24.6956 48.125 26.9212 47.2031 28.5622 45.5622C30.2031 43.9212 31.125 41.6956 31.125 39.375C31.125 37.0544 30.2031 34.8288 28.5622 33.1878C26.9212 31.5469 24.6956 30.625 22.375 30.625C20.0544 30.625 17.8288 31.5469 16.1878 33.1878C14.5469 34.8288 13.625 37.0544 13.625 39.375C13.625 41.6956 14.5469 43.9212 16.1878 45.5622C17.8288 47.2031 20.0544 48.125 22.375 48.125ZM22.375 35C23.5353 35 24.6481 35.4609 25.4686 36.2814C26.2891 37.1019 26.75 38.2147 26.75 39.375C26.75 40.5353 26.2891 41.6481 25.4686 42.4686C24.6481 43.2891 23.5353 43.75 22.375 43.75C21.2147 43.75 20.1019 43.2891 19.2814 42.4686C18.4609 41.6481 18 40.5353 18 39.375C18 38.2147 18.4609 37.1019 19.2814 36.2814C20.1019 35.4609 21.2147 35 22.375 35ZM33.3125 52.5H11.4375C8.53669 52.5 5.7547 53.6523 3.70352 55.7035C1.65234 57.7547 0.5 60.5367 0.5 63.4375C0.5 65.178 1.19141 66.8472 2.42212 68.0779C3.65282 69.3086 5.32202 70 7.0625 70H37.6875C39.428 70 41.0972 69.3086 42.3279 68.0779C43.5586 66.8472 44.25 65.178 44.25 63.4375C44.25 60.5367 43.0977 57.7547 41.0465 55.7035C38.9953 53.6523 36.2133 52.5 33.3125 52.5ZM37.6875 65.625H7.0625C6.48234 65.625 5.92594 65.3945 5.5157 64.9843C5.10547 64.5741 4.875 64.0177 4.875 63.4375C4.875 61.697 5.56641 60.0278 6.79712 58.7971C8.02782 57.5664 9.69702 56.875 11.4375 56.875H33.3125C35.053 56.875 36.7222 57.5664 37.9529 58.7971C39.1836 60.0278 39.875 61.697 39.875 63.4375C39.875 64.0177 39.6445 64.5741 39.2343 64.9843C38.8241 65.3945 38.2677 65.625 37.6875 65.625ZM59.5625 0H28.9375C26.0367 0 23.2547 1.15234 21.2035 3.20352C19.1523 5.2547 18 8.03669 18 10.9375V24.0625C18 24.6427 18.2305 25.1991 18.6407 25.6093C19.0509 26.0195 19.6073 26.25 20.1875 26.25C20.7677 26.25 21.3241 26.0195 21.7343 25.6093C22.1445 25.1991 22.375 24.6427 22.375 24.0625V10.9375C22.375 9.19702 23.0664 7.52782 24.2971 6.29711C25.5278 5.0664 27.197 4.375 28.9375 4.375H42.0625V8.75C40.322 8.75 38.6528 9.4414 37.4221 10.6721C36.1914 11.9028 35.5 13.572 35.5 15.3125C35.5 17.053 36.1914 18.7222 37.4221 19.9529C38.6528 21.1836 40.322 21.875 42.0625 21.875V26.25H37.6875C37.1073 26.25 36.5509 26.4805 36.1407 26.8907C35.7305 27.3009 35.5 27.8573 35.5 28.4375C35.5 29.0177 35.7305 29.5741 36.1407 29.9843C36.5509 30.3945 37.1073 30.625 37.6875 30.625H42.0625V32.8125C42.0625 33.3927 42.293 33.9491 42.7032 34.3593C43.1134 34.7695 43.6698 35 44.25 35C44.8302 35 45.3866 34.7695 45.7968 34.3593C46.207 33.9491 46.4375 33.3927 46.4375 32.8125V30.625C48.178 30.625 49.8472 29.9336 51.0779 28.7029C52.3086 27.4722 53 25.803 53 24.0625C53 22.322 52.3086 20.6528 51.0779 19.4221C49.8472 18.1914 48.178 17.5 46.4375 17.5V13.125H50.8125C51.3927 13.125 51.9491 12.8945 52.3593 12.4843C52.7695 12.0741 53 11.5177 53 10.9375C53 10.3573 52.7695 9.80094 52.3593 9.3907C51.9491 8.98047 51.3927 8.75 50.8125 8.75H46.4375V4.375H59.5625C61.303 4.375 62.9722 5.0664 64.2029 6.29711C65.4336 7.52782 66.125 9.19702 66.125 10.9375V32.8125C66.125 34.553 65.4336 36.2222 64.2029 37.4529C62.9722 38.6836 61.303 39.375 59.5625 39.375H46.4375C46.15 39.3745 45.8653 39.4306 45.5996 39.5402C45.3338 39.6498 45.0923 39.8107 44.8887 40.0137L39.875 45.0319V41.5625C39.875 40.9823 39.6445 40.4259 39.2343 40.0157C38.8241 39.6055 38.2677 39.375 37.6875 39.375C37.1073 39.375 36.5509 39.6055 36.1407 40.0157C35.7305 40.4259 35.5 40.9823 35.5 41.5625V50.3125C35.5001 50.7454 35.6286 51.1685 35.8692 51.5283C36.1099 51.8881 36.4518 52.1684 36.8519 52.3337C37.1165 52.4446 37.4006 52.5012 37.6875 52.5C37.975 52.5005 38.2597 52.4444 38.5254 52.3348C38.7912 52.2252 39.0327 52.0643 39.2363 51.8613L47.3431 43.75H59.5625C62.4633 43.75 65.2453 42.5977 67.2965 40.5465C69.3477 38.4953 70.5 35.7133 70.5 32.8125V10.9375C70.5 8.03669 69.3477 5.2547 67.2965 3.20352C65.2453 1.15234 62.4633 0 59.5625 0ZM48.625 24.0625C48.625 24.6427 48.3945 25.1991 47.9843 25.6093C47.5741 26.0195 47.0177 26.25 46.4375 26.25V21.875C47.0177 21.875 47.5741 22.1055 47.9843 22.5157C48.3945 22.9259 48.625 23.4823 48.625 24.0625ZM42.0625 17.5C41.4823 17.5 40.9259 17.2695 40.5157 16.8593C40.1055 16.4491 39.875 15.8927 39.875 15.3125C39.875 14.7323 40.1055 14.1759 40.5157 13.7657C40.9259 13.3555 41.4823 13.125 42.0625 13.125V17.5Z" fill="white"/>
</g>
<defs>
<clipPath id="clip0_1306_1705">
<rect width="70" height="70" fill="white" transform="translate(0.5)"/>
</clipPath>
</defs>
</svg>
