<svg width="71" height="70" viewBox="0 0 71 70" fill="none" xmlns="http://www.w3.org/2000/svg">
<g id="How It&#194;&#160;Works icon">
<path id="Vector" fill-rule="evenodd" clip-rule="evenodd" d="M46.4375 17.5C46.4375 11.4594 41.5407 6.5625 35.5 6.5625C29.4594 6.5625 24.5625 11.4594 24.5625 17.5C24.5625 23.5406 29.4594 28.4375 35.5 28.4375C41.5407 28.4375 46.4375 23.5406 46.4375 17.5ZM35.5 10.9375C39.1242 10.9375 42.0625 13.8756 42.0625 17.5C42.0625 21.1244 39.1242 24.0625 35.5 24.0625C31.8757 24.0625 28.9375 21.1244 28.9375 17.5C28.9375 13.8756 31.8757 10.9375 35.5 10.9375Z" fill="white"/>
<path id="Vector_2" fill-rule="evenodd" clip-rule="evenodd" d="M27.4792 52.5C27.4792 46.4593 22.5824 41.5625 16.5417 41.5625C10.5011 41.5625 5.60425 46.4593 5.60425 52.5C5.60425 58.5407 10.5011 63.4375 16.5417 63.4375C22.5824 63.4375 27.4792 58.5407 27.4792 52.5ZM16.5417 45.9375C20.1661 45.9375 23.1042 48.8757 23.1042 52.5C23.1042 56.1242 20.1661 59.0625 16.5417 59.0625C12.9174 59.0625 9.97925 56.1242 9.97925 52.5C9.97925 48.8757 12.9174 45.9375 16.5417 45.9375Z" fill="white"/>
<path id="Vector_3" fill-rule="evenodd" clip-rule="evenodd" d="M54.4583 41.5625C60.499 41.5625 65.3958 46.4593 65.3958 52.5C65.3958 58.5407 60.499 63.4375 54.4583 63.4375C48.4175 63.4375 43.5208 58.5407 43.5208 52.5C43.5208 46.4593 48.4175 41.5625 54.4583 41.5625ZM61.0208 52.5C61.0208 48.8757 58.0825 45.9375 54.4583 45.9375C50.834 45.9375 47.8958 48.8757 47.8958 52.5C47.8958 56.1242 50.834 59.0625 54.4583 59.0625C58.0825 59.0625 61.0208 56.1242 61.0208 52.5Z" fill="white"/>
<path id="Vector_4" d="M21.5137 22.0567C22.4195 21.2573 22.5057 19.8749 21.7063 18.9691C20.9068 18.0633 19.5244 17.9771 18.6186 18.7766C13.324 23.4497 9.97925 30.2939 9.97925 37.9166C9.97925 39.1247 10.9586 40.1041 12.1667 40.1041C13.3749 40.1041 14.3542 39.1247 14.3542 37.9166C14.3542 31.6012 17.1201 25.9346 21.5137 22.0567Z" fill="white"/>
<path id="Vector_5" d="M52.3814 18.7766C51.4757 17.9771 50.0932 18.0633 49.2938 18.9691C48.4943 19.8749 48.5806 21.2573 49.4863 22.0567C53.8799 25.9346 56.6458 31.6012 56.6458 37.9166C56.6458 39.1247 57.6252 40.1041 58.8333 40.1041C60.0414 40.1041 61.0208 39.1247 61.0208 37.9166C61.0208 30.2939 57.676 23.4497 52.3814 18.7766Z" fill="white"/>
<path id="Vector_6" d="M30.2119 58.3967C29.042 58.0954 27.8495 58.7997 27.5483 59.9696C27.2472 61.1398 27.9516 62.3324 29.1215 62.6334C31.1627 63.1587 33.3004 63.4375 35.5001 63.4375C37.6999 63.4375 39.8375 63.1587 41.8786 62.6334C43.0487 62.3324 43.7531 61.1398 43.4518 59.9696C43.1508 58.7997 41.9582 58.0954 40.7883 58.3967C39.1005 58.831 37.3289 59.0625 35.5001 59.0625C33.6714 59.0625 31.8998 58.831 30.2119 58.3967Z" fill="white"/>
</g>
</svg>
