<svg width="70" height="70" viewBox="0 0 70 70" fill="none" xmlns="http://www.w3.org/2000/svg">
<path fill-rule="evenodd" clip-rule="evenodd" d="M35 5.8335C36.6109 5.8335 37.9166 7.13935 37.9166 8.75016V11.6668C37.9166 13.2776 36.6109 14.5835 35 14.5835C33.3891 14.5835 32.0833 13.2776 32.0833 11.6668V8.75016C32.0833 7.13935 33.3891 5.8335 35 5.8335Z" fill="#1F87FF"/>
<path fill-rule="evenodd" clip-rule="evenodd" d="M57.479 12.5208C58.618 13.6598 58.618 15.5065 57.479 16.6456L54.5623 19.5622C53.4234 20.7013 51.5766 20.7013 50.4376 19.5622C49.2986 18.4232 49.2986 16.5765 50.4376 15.4374L53.3543 12.5208C54.4932 11.3817 56.3401 11.3817 57.479 12.5208Z" fill="#1F87FF"/>
<path fill-rule="evenodd" clip-rule="evenodd" d="M55.4166 35.0002C55.4166 33.3893 56.7224 32.0835 58.3333 32.0835H61.25C62.8608 32.0835 64.1666 33.3893 64.1666 35.0002C64.1666 36.611 62.8608 37.9168 61.25 37.9168H58.3333C56.7224 37.9168 55.4166 36.611 55.4166 35.0002Z" fill="#1F87FF"/>
<path fill-rule="evenodd" clip-rule="evenodd" d="M5.83331 35.0002C5.83331 33.3893 7.13916 32.0835 8.74998 32.0835H11.6666C13.2775 32.0835 14.5833 33.3893 14.5833 35.0002C14.5833 36.611 13.2775 37.9168 11.6666 37.9168H8.74998C7.13916 37.9168 5.83331 36.611 5.83331 35.0002Z" fill="#1F87FF"/>
<path fill-rule="evenodd" clip-rule="evenodd" d="M12.5209 12.5208C13.66 11.3817 15.5067 11.3817 16.6458 12.5208L19.5624 15.4374C20.7014 16.5765 20.7014 18.4232 19.5624 19.5622C18.4234 20.7013 16.5767 20.7013 15.4376 19.5622L12.5209 16.6456C11.3819 15.5065 11.3819 13.6598 12.5209 12.5208Z" fill="#1F87FF"/>
<path fill-rule="evenodd" clip-rule="evenodd" d="M35 17.5C25.335 17.5 17.5 25.335 17.5 35C17.5 39.7635 19.4071 44.0875 22.4929 47.2401C23.2742 48.0384 23.6953 48.7716 23.8253 49.4212L25.3685 57.1334C26.1868 61.2232 29.7777 64.1667 33.9485 64.1667H36.0515C40.2223 64.1667 43.8133 61.2232 44.6314 57.1334L46.1746 49.4212C46.3047 48.7716 46.7259 48.0384 47.507 47.2401C50.5928 44.0875 52.5 39.7635 52.5 35C52.5 25.335 44.665 17.5 35 17.5ZM32.0833 46.6667C30.4725 46.6667 29.1667 47.9725 29.1667 49.5833C29.1667 51.1942 30.4725 52.5 32.0833 52.5H37.9167C39.5275 52.5 40.8333 51.1942 40.8333 49.5833C40.8333 47.9725 39.5275 46.6667 37.9167 46.6667H32.0833Z" fill="#1F87FF"/>
</svg>
