<svg width="100" height="100" viewBox="0 0 100 100" fill="none" xmlns="http://www.w3.org/2000/svg">
<circle cx="50" cy="50" r="49" stroke="#1F87FF" stroke-width="2"/>
<g clip-path="url(#clip0_295_2470)">
<path d="M38.5955 45.2781C38.0418 45.7421 37.3982 45.9217 36.4853 46.0115V41.0726C37.5778 41.4318 38.3112 41.8059 38.7751 42.1651C39.1343 42.5243 39.4187 43.0781 39.4187 43.7216C39.329 44.3652 39.0596 44.904 38.5955 45.2781ZM34.6595 32.3622C33.8364 32.452 33.1928 32.7214 32.7289 33.0955C32.2649 33.5595 31.9955 34.0983 31.9955 34.652C31.9955 35.2956 32.1751 35.7446 32.5493 36.1187C32.9085 36.4779 33.6418 36.8521 34.6595 37.2113V32.3622ZM77.7025 42.8087V73.2203C77.7025 76.9768 74.6795 80.0001 70.923 80.0001H29.0771C25.3206 80.0001 22.2974 76.9768 22.2974 73.2203V26.7797C22.2974 23.0232 25.3206 20 29.0771 20H55.2682C57.9171 20 59.2042 20.7333 60.8505 22.4694L75.1433 36.9419C77.0591 38.7678 77.7025 39.9651 77.7025 42.8087ZM47.5753 36.0289H57.6475C58.8448 36.0289 59.7581 35.116 59.7581 34.0085V32.452C59.7581 31.3594 58.8448 30.4315 57.6475 30.4315H47.5753V36.0289ZM34.6595 40.6086V46.0115C33.0133 45.7421 31.4568 45.0087 29.9003 43.6318L27.8798 46.0115C29.9003 47.7476 32.1901 48.7653 34.6595 49.0347V51.0402H36.3956V49.0197C38.3263 48.9299 39.778 48.3762 40.9753 47.3734C42.0679 46.3707 42.7114 44.9938 42.7114 43.4373C42.7114 41.791 42.2475 40.5937 41.2447 39.7705C40.242 38.9474 38.6855 38.214 36.5752 37.7501H36.4854V32.5268C37.9521 32.7064 39.2392 33.35 40.4216 34.1731L42.2475 31.6139C40.4216 30.4166 38.4909 29.6832 36.4705 29.5934V28.0369H34.7344V29.4138C32.9983 29.5036 31.5316 30.0574 30.4241 31.0601C29.3315 32.0629 28.688 33.4398 28.688 34.9963C28.688 36.5528 29.2417 37.7501 30.1547 38.663C31.0826 39.4113 32.5493 40.1447 34.6595 40.6086ZM72.2997 70.2869C72.2997 69.1942 71.3868 68.2664 70.1895 68.2664H29.6157C28.4184 68.2664 27.5953 69.1793 27.5953 70.2869V71.8433C27.5953 72.9357 28.5082 73.8638 29.6157 73.8638H70.1895C71.2821 73.8638 72.2997 72.9509 72.2997 71.8433V70.2869ZM72.2997 57.6403C72.2997 56.5476 71.3868 55.6199 70.1895 55.6199H29.6157C28.4184 55.6199 27.5953 56.5328 27.5953 57.6403V59.1968C27.5953 60.2892 28.5082 61.2173 29.6157 61.2173H70.1895C71.2821 61.2173 72.2997 60.3043 72.2997 59.1968V57.6403ZM72.2997 44.9938C72.2997 43.9012 71.3868 42.9733 70.1895 42.9733H47.5753V48.5557H70.2044C71.2971 48.5557 72.3147 47.6428 72.3147 46.5353V44.9938H72.2997Z" fill="#1F87FF"/>
</g>
<defs>
<clipPath id="clip0_295_2470">
<rect width="60" height="60" fill="white" transform="translate(20 20)"/>
</clipPath>
</defs>
</svg>
