<svg width="126" height="41" viewBox="0 0 126 41" fill="none" xmlns="http://www.w3.org/2000/svg">
<rect x="1" y="1" width="124" height="39" rx="19" stroke="#1F87FF" stroke-width="2"/>
<g clip-path="url(#clip0_969_370)">
<path d="M30 10V32" stroke="white" stroke-width="2" stroke-linecap="round" stroke-linejoin="round"/>
<path d="M35 14H27.5C26.5717 14 25.6815 14.3687 25.0251 15.0251C24.3687 15.6815 24 16.5717 24 17.5C24 18.4283 24.3687 19.3185 25.0251 19.9749C25.6815 20.6313 26.5717 21 27.5 21H32.5C33.4283 21 34.3185 21.3687 34.9749 22.0251C35.6313 22.6815 36 23.5717 36 24.5C36 25.4283 35.6313 26.3185 34.9749 26.9749C34.3185 27.6313 33.4283 28 32.5 28H24" stroke="white" stroke-width="2" stroke-linecap="round" stroke-linejoin="round"/>
</g>
<path d="M61.2486 13.4545H64.3239V22.9006C64.3239 23.9612 64.0705 24.8892 63.5639 25.6847C63.062 26.4801 62.3589 27.1004 61.4545 27.5455C60.5502 27.9858 59.4967 28.206 58.294 28.206C57.0866 28.206 56.0308 27.9858 55.1264 27.5455C54.2221 27.1004 53.5189 26.4801 53.017 25.6847C52.5152 24.8892 52.2642 23.9612 52.2642 22.9006V13.4545H55.3395V22.6378C55.3395 23.1918 55.4602 23.6842 55.7017 24.1151C55.9479 24.5459 56.2936 24.8845 56.7386 25.1307C57.1837 25.3769 57.7022 25.5 58.294 25.5C58.8906 25.5 59.4091 25.3769 59.8494 25.1307C60.2945 24.8845 60.6378 24.5459 60.8793 24.1151C61.1255 23.6842 61.2486 23.1918 61.2486 22.6378V13.4545ZM74.7447 17.6378C74.6879 17.0649 74.444 16.6198 74.0131 16.3026C73.5823 15.9853 72.9975 15.8267 72.2589 15.8267C71.757 15.8267 71.3332 15.8977 70.9876 16.0398C70.6419 16.1771 70.3768 16.3688 70.1921 16.6151C70.0122 16.8613 69.9222 17.1406 69.9222 17.4531C69.9128 17.7135 69.9672 17.9408 70.0856 18.1349C70.2087 18.3291 70.3768 18.4972 70.5898 18.6392C70.8029 18.7765 71.0491 18.8973 71.3285 19.0014C71.6078 19.1009 71.9061 19.1861 72.2234 19.2571L73.5302 19.5696C74.1647 19.7116 74.747 19.901 75.2773 20.1378C75.8076 20.3745 76.2669 20.6657 76.6552 21.0114C77.0434 21.357 77.3441 21.7642 77.5572 22.233C77.775 22.7017 77.8862 23.2391 77.891 23.8452C77.8862 24.7353 77.659 25.5071 77.2092 26.1605C76.7641 26.8092 76.1201 27.3134 75.2773 27.6733C74.4393 28.0284 73.4284 28.206 72.2447 28.206C71.0704 28.206 70.0477 28.026 69.1765 27.6662C68.31 27.3063 67.6329 26.7737 67.1452 26.0682C66.6623 25.358 66.409 24.4796 66.3853 23.4332H69.3612C69.3943 23.9209 69.534 24.3281 69.7802 24.6548C70.0311 24.9768 70.3649 25.2206 70.7816 25.3864C71.203 25.5473 71.6789 25.6278 72.2092 25.6278C72.73 25.6278 73.1822 25.5521 73.5657 25.4006C73.954 25.2491 74.2546 25.0384 74.4677 24.7685C74.6808 24.4986 74.7873 24.1884 74.7873 23.8381C74.7873 23.5114 74.6902 23.2367 74.4961 23.0142C74.3067 22.7917 74.0273 22.6023 73.658 22.446C73.2934 22.2898 72.846 22.1477 72.3157 22.0199L70.7319 21.6222C69.5056 21.3239 68.5373 20.8575 67.8271 20.223C67.1168 19.5885 66.7641 18.7339 66.7688 17.6591C66.7641 16.7784 66.9985 16.009 67.4719 15.3509C67.9502 14.6927 68.6059 14.179 69.4393 13.8097C70.2726 13.4403 71.2196 13.2557 72.2802 13.2557C73.3597 13.2557 74.302 13.4403 75.1069 13.8097C75.9165 14.179 76.5463 14.6927 76.9961 15.3509C77.4459 16.009 77.6779 16.7713 77.6921 17.6378H74.7447ZM85.1158 28H79.9595V13.4545H85.1584C86.6214 13.4545 87.8809 13.7457 88.9368 14.3281C89.9927 14.9058 90.8047 15.7367 91.3729 16.821C91.9458 17.9053 92.2322 19.2027 92.2322 20.7131C92.2322 22.2282 91.9458 23.5303 91.3729 24.6193C90.8047 25.7083 89.9879 26.544 88.9226 27.1264C87.862 27.7088 86.593 28 85.1158 28ZM83.0348 25.3651H84.9879C85.897 25.3651 86.6617 25.2041 87.282 24.8821C87.907 24.5554 88.3757 24.0511 88.6882 23.3693C89.0054 22.6828 89.1641 21.7973 89.1641 20.7131C89.1641 19.6383 89.0054 18.7599 88.6882 18.0781C88.3757 17.3963 87.9093 16.8944 87.2891 16.5724C86.6688 16.2505 85.9041 16.0895 84.995 16.0895H83.0348V25.3651Z" fill="white"/>
<defs>
<clipPath id="clip0_969_370">
<rect width="24" height="24" fill="white" transform="translate(18 8)"/>
</clipPath>
</defs>
</svg>
