<svg width="100" height="100" viewBox="0 0 100 100" fill="none" xmlns="http://www.w3.org/2000/svg">
<g clip-path="url(#clip0_914_1121)">
<path d="M97.2863 50.4288C96.9864 50.3701 91.6057 49.3291 84.3854 48.7967C84.4204 48.1333 84.4389 47.4655 84.4389 46.7933C84.4389 26.0234 67.5412 9.12573 46.7714 9.12573C26.0013 9.12573 9.10333 26.0234 9.10333 46.7933C9.10333 51.1724 9.85724 55.3778 11.237 59.2906C6.42101 59.696 2.92064 60.3731 2.71366 60.4139L0 60.946L1.18192 63.446C1.54629 64.2169 10.2322 82.3881 21.1118 87.8849C25.0379 89.8684 28.71 90.8742 32.0263 90.8747C32.0271 90.8747 32.0273 90.8747 32.0278 90.8747C36.9669 90.8747 41.0115 88.6435 43.5564 84.557C46.8952 88.5463 51.5943 90.6958 57.1553 90.6958C61.5852 90.6958 66.5103 89.3427 71.7933 86.6737C86.501 79.2427 98.322 54.5107 98.8181 53.4612L100 50.9612L97.2863 50.4288ZM77.805 34.5451C76.3853 33.3826 74.7502 32.2947 72.9093 31.2978C70.6311 30.0638 68.1106 29.0129 65.413 28.1522C64.5522 25.4541 63.5013 22.9336 62.2668 20.6548C61.2699 18.8142 60.1823 17.1791 59.0196 15.7594C67.5799 19.1502 74.4147 25.9849 77.805 34.5451ZM79.8568 44.6408H68.1241C68.0006 40.6833 67.5348 36.8401 66.756 33.2215C73.7473 35.9534 78.6697 40.0437 79.8568 44.6408ZM48.9238 13.7076C53.5212 14.895 57.6114 19.8175 60.3436 26.8089C56.7248 26.0301 52.8818 25.5646 48.9238 25.4407V13.7076ZM48.9238 29.7471C53.5521 29.9064 57.9578 30.5747 61.9232 31.6414C62.9899 35.6071 63.6582 40.0126 63.8178 44.6406H48.9238V29.7471ZM48.9238 48.9457H63.8178C63.8112 49.1359 63.804 49.3261 63.7959 49.5156C60.2059 50.1816 57.1035 51.1689 54.5169 52.4757C52.4515 53.5189 50.5868 54.6325 48.9238 55.8127V48.9457ZM44.6187 13.7076V25.4407C40.6609 25.5646 36.8177 26.0301 33.1989 26.8089C35.931 19.8175 40.0215 14.895 44.6187 13.7076ZM44.6187 29.7471V44.6408H29.7247C29.884 40.0128 30.5523 35.6071 31.6193 31.6414C35.5847 30.5747 39.9907 29.9067 44.6187 29.7471ZM34.5227 15.7599C33.36 17.1796 32.2723 18.8147 31.2754 20.6553C30.0412 22.9338 28.9902 25.4545 28.1295 28.1524C25.4314 29.0134 22.9112 30.0641 20.6324 31.2983C18.7918 32.2952 17.1567 33.3829 15.737 34.5453C19.1278 25.9847 25.9623 19.1502 34.5227 15.7599ZM26.7865 33.2213C26.0077 36.8401 25.5419 40.6831 25.4183 44.6408H13.6855C14.8726 40.0437 19.7951 35.9534 26.7865 33.2213ZM25.4183 48.9457C25.5338 52.6373 25.9458 56.2294 26.6326 59.6328C25.8952 59.5097 25.1319 59.4036 24.3425 59.3161C18.6586 56.6364 14.7287 52.9868 13.6855 48.9457H25.4183ZM38.8342 83.6953C37.4065 85.2707 35.2524 86.5693 32.0278 86.5693H32.0268C29.3909 86.5691 26.3716 85.719 23.053 84.0424C15.7279 80.3412 9.11962 69.2397 6.39436 64.1745C9.10876 63.7862 13.4536 63.2953 18.0653 63.2953C24.2046 63.2953 28.9836 64.137 32.2698 65.7973C35.2309 67.293 37.4968 68.9673 39.0513 70.7714C38.7421 73.9096 39.3406 77.1223 40.8396 80.2719L19.0773 70.0824L38.8342 83.6953ZM36.0073 62.9277C35.432 62.5949 34.8347 62.27 34.2108 61.9547C33.3267 61.508 32.3589 61.114 31.3178 60.7676C30.4268 57.1143 29.8687 53.1208 29.7247 48.9454H44.6187V59.4752C43.3396 60.8009 42.2724 62.1925 41.4186 63.6468C39.5636 63.4862 37.7549 63.2442 36.0073 62.9277ZM69.852 82.8309C65.1766 85.193 60.9046 86.3905 57.1553 86.3905C52.153 86.3905 48.9139 84.2541 46.8382 81.7652L76.7264 62.6203L44.9229 78.8339C44.9165 78.8211 44.9093 78.808 44.9029 78.7952C40.6471 70.3703 44.859 62.1777 56.4581 56.3182C61.0884 53.979 67.779 52.7929 76.3443 52.7929C83.3993 52.7929 90.0224 53.6265 93.6306 54.1776C90.2451 60.6184 80.6477 77.3767 69.852 82.8309Z" fill="#0A7CFF"/>
</g>
<defs>
<clipPath id="clip0_914_1121">
<rect width="100" height="100" fill="white"/>
</clipPath>
</defs>
</svg>
