<svg width="40" height="40" viewBox="0 0 40 40" fill="none" xmlns="http://www.w3.org/2000/svg">
<g id="8546766_discord_icon 1">
<path id="Vector" d="M32.7832 5.45592C32.773 5.43118 32.756 5.4118 32.7354 5.40124C30.3527 4.03472 27.8383 3.06029 25.2551 2.50233C25.2316 2.49688 25.2073 2.50081 25.1858 2.51357C25.1642 2.52634 25.1464 2.54728 25.1349 2.57342C24.7925 3.35021 24.4817 4.1481 24.2036 4.96405C21.419 4.43567 18.5866 4.43567 15.802 4.96405C15.5221 4.14603 15.2063 3.34794 14.8561 2.57342C14.844 2.54785 14.8261 2.52739 14.8047 2.51471C14.7832 2.50203 14.7592 2.49771 14.7358 2.50233C12.1523 3.05912 9.63769 4.03362 7.2553 5.40131C7.23491 5.41212 7.2177 5.43057 7.20605 5.45413C2.44174 14.3477 1.13662 23.0226 1.77687 31.5901C1.77867 31.6111 1.78383 31.6315 1.79204 31.6499C1.80026 31.6684 1.81135 31.6846 1.82468 31.6976C4.59889 34.2652 7.70189 36.2251 11.0012 37.4936C11.0245 37.5023 11.0493 37.5019 11.0723 37.4925C11.0954 37.483 11.1156 37.465 11.1302 37.4408C11.8388 36.2355 12.4667 34.9593 13.0075 33.625C13.0149 33.6067 13.0192 33.5866 13.0199 33.5661C13.0207 33.5456 13.018 33.5251 13.012 33.506C13.006 33.4869 12.9968 33.4696 12.985 33.4553C12.9733 33.4409 12.9592 33.4299 12.9438 33.4228C11.9537 32.9492 10.9951 32.3784 10.0771 31.7155C10.0604 31.7033 10.0464 31.6861 10.0363 31.6655C10.0262 31.6448 10.0203 31.6214 10.0192 31.5973C10.018 31.5731 10.0216 31.549 10.0297 31.5271C10.0378 31.5051 10.0501 31.4859 10.0655 31.4713C10.2581 31.2909 10.4509 31.1033 10.6348 30.9137C10.6511 30.8969 10.6709 30.8861 10.6919 30.8826C10.7129 30.8791 10.7342 30.8829 10.7536 30.8937C16.7679 34.3248 23.2792 34.3248 29.2223 30.8937C29.2417 30.8822 29.2633 30.8778 29.2845 30.8811C29.3058 30.8843 29.3259 30.895 29.3426 30.9119C29.5266 31.1015 29.7192 31.2909 29.9133 31.4713C29.9288 31.4858 29.9412 31.5048 29.9494 31.5267C29.9576 31.5486 29.9614 31.5727 29.9604 31.5968C29.9594 31.6209 29.9536 31.6444 29.9437 31.6651C29.9337 31.6858 29.9198 31.7031 29.9032 31.7155C28.9872 32.3839 28.0278 32.9544 27.0351 33.421C27.0196 33.4283 27.0056 33.4397 26.994 33.4542C26.9823 33.4688 26.9732 33.4863 26.9673 33.5055C26.9614 33.5248 26.9588 33.5454 26.9597 33.566C26.9606 33.5865 26.965 33.6067 26.9726 33.625C27.5224 34.9518 28.1494 36.2265 28.8484 37.4387C28.8626 37.4635 28.8827 37.4822 28.9058 37.492C28.929 37.5018 28.954 37.5023 28.9774 37.4933C32.2826 36.2291 35.3911 34.2691 38.1687 31.6976C38.1823 31.6852 38.1935 31.6694 38.2018 31.6512C38.21 31.633 38.2151 31.6128 38.2166 31.5919C38.9831 21.687 36.9333 13.0832 32.7832 5.45592ZM13.9057 26.3734C12.0949 26.3734 10.6029 24.2963 10.6029 21.7454C10.6029 19.1944 12.066 17.1172 13.9057 17.1172C15.7597 17.1172 17.2373 19.2125 17.2084 21.7452C17.2084 24.2963 15.7452 26.3734 13.9057 26.3734ZM26.1169 26.3734C24.3062 26.3734 22.8142 24.2963 22.8142 21.7454C22.8142 19.1944 24.2773 17.1172 26.1169 17.1172C27.9711 17.1172 29.4486 19.2125 29.4197 21.7452C29.4197 24.2963 27.9711 26.3734 26.1169 26.3734Z" fill="white"/>
</g>
</svg>
