<svg width="40" height="40" viewBox="0 0 40 40" fill="none" xmlns="http://www.w3.org/2000/svg">
<g id="telegram-alt-svgrepo-com 1" clip-path="url(#clip0_1213_995)">
<path id="Vector" d="M32 7.33332L4.83331 17.8333C2.99998 18.5 2.99998 19.6667 4.49998 20L11.3333 22.1667L14 30.1667C14.3333 31 14.1666 31.3333 15 31.3333C15.6666 31.3333 16 31 16.3333 30.6667C16.5 30.5 18 29 19.6666 27.3333L26.6666 32.5C28 33.1667 28.8333 32.8333 29.1666 31.3333L33.8333 9.49999C34.3333 7.66665 33.1666 6.66666 32 7.33332ZM28.5 12.3333L15.5 24.1667L15 29.6667L12.3333 21.6667L27.6666 12C28.3333 11.5 29 11.8333 28.5 12.3333Z" fill="white"/>
</g>
<defs>
<clipPath id="clip0_1213_995">
<rect width="40" height="40" fill="white"/>
</clipPath>
</defs>
</svg>
