<svg width="40" height="40" viewBox="0 0 40 40" fill="none" xmlns="http://www.w3.org/2000/svg">
<g id="11053969_x_logo_twitter_new_brand_icon 1">
<g id="Group">
<path id="Vector" d="M20.2567 17.8826L13.4812 8.40204H9.86737L18.2605 20.1452L19.317 21.6225L26.5011 31.6827H30.1149L21.3087 19.3599L20.2567 17.8826Z" fill="white"/>
<path id="Vector_2" d="M35.2663 1.66669H4.7337C3.03978 1.66669 1.66669 3.03978 1.66669 4.7337V35.2663C1.66669 36.9603 3.03978 38.3334 4.7337 38.3334H35.2663C36.9603 38.3334 38.3334 36.9603 38.3334 35.2663V4.7337C38.3334 3.03978 36.9603 1.66669 35.2663 1.66669ZM25.3923 33.3334L18.1214 22.9783L9.01908 33.3334H6.66669L17.0782 21.4922L6.66669 6.66669H14.6078L21.4913 16.47L30.116 6.66669H32.4683L22.54 17.9594L33.3334 33.3334H25.3923Z" fill="white"/>
</g>
</g>
</svg>
