<svg width="100" height="100" viewBox="0 0 100 100" fill="none" xmlns="http://www.w3.org/2000/svg">
<g clip-path="url(#clip0_272_1259)">
<path d="M50 100C77.6142 100 100 77.6142 100 50C100 22.3858 77.6142 0 50 0C22.3858 0 0 22.3858 0 50C0 77.6142 22.3858 100 50 100Z" fill="#26A17B"/>
<path d="M55.3296 54.614V54.6059C54.9839 54.6301 53.1993 54.7346 49.2283 54.7346C46.0531 54.7346 43.8264 54.6461 43.0385 54.6059V54.614C30.8279 54.0755 21.7202 51.9532 21.7202 49.4051C21.7202 46.8648 30.836 44.7346 43.0385 44.1961V52.4998C43.8343 52.5561 46.1254 52.6928 49.2846 52.6928C53.0787 52.6928 54.9758 52.5319 55.3296 52.4998V44.204C67.516 44.7507 76.5996 46.8728 76.5996 49.413C76.5996 51.9532 67.5081 54.0755 55.3296 54.6221V54.614ZM55.3296 43.344V35.9163H72.3312V24.5898H26.045V35.9163H43.0466V43.344C29.2283 43.979 18.8424 46.7121 18.8424 49.9917C18.8424 53.2715 29.2362 56.0046 43.0466 56.6478V80.458H55.3377V56.6478C69.1318 56.0128 79.5016 53.2796 79.5016 49.9998C79.5016 46.7282 69.1318 43.9869 55.3377 43.3519" fill="white"/>
</g>
<defs>
<clipPath id="clip0_272_1259">
<rect width="100" height="100" fill="white"/>
</clipPath>
</defs>
</svg>
