<svg width="100" height="100" viewBox="0 0 100 100" fill="none" xmlns="http://www.w3.org/2000/svg">
<g clip-path="url(#clip0_272_1262)">
<path d="M93.1034 16.3789H6.89654C3.56379 16.3789 0.862061 19.0806 0.862061 22.4134V77.5858C0.862061 80.9186 3.56379 83.6203 6.89654 83.6203H93.1034C96.4362 83.6203 99.1379 80.9186 99.1379 77.5858V22.4134C99.1379 19.0806 96.4362 16.3789 93.1034 16.3789Z" fill="white" stroke="#F3F3F3" stroke-width="13.7931"/>
<path fill-rule="evenodd" clip-rule="evenodd" d="M33.9059 43.4045C34.6059 43.4045 35.21 43.529 35.718 43.7743C36.2283 44.0216 36.6501 44.3548 36.9876 44.774C37.3209 45.1952 37.569 45.6878 37.7292 46.2517C37.8883 46.8178 37.9682 47.4259 37.9682 48.0773C37.9682 49.0769 37.7842 50.0224 37.4121 50.9131C37.0406 51.805 36.5357 52.5786 35.8938 53.2388C35.2526 53.8981 34.4954 54.4176 33.6221 54.8012C32.75 55.1861 31.8025 55.3776 30.7847 55.3776C30.653 55.3776 30.4216 55.3743 30.0949 55.3669C29.768 55.3604 29.3921 55.3271 28.9714 55.2702C28.548 55.2117 28.1004 55.1248 27.6273 55.0085C27.1549 54.8942 26.7061 54.7336 26.2833 54.5304L30.0619 38.734L33.4463 38.2119L32.0937 43.8173C32.3833 43.6874 32.675 43.5864 32.9663 43.5135C33.2592 43.4426 33.5714 43.4045 33.9059 43.4045ZM31.0673 52.7069C31.5769 52.7069 32.0569 52.5824 32.5083 52.3373C32.9609 52.0926 33.3514 51.7614 33.6782 51.3488C34.0051 50.9352 34.2645 50.4683 34.4533 49.9467C34.6421 49.4257 34.7375 48.8821 34.7375 48.3161C34.7375 47.6211 34.6211 47.0786 34.388 46.6869C34.155 46.2962 33.7245 46.1004 33.099 46.1004C32.894 46.1004 32.6297 46.139 32.3023 46.2083C31.9738 46.2828 31.6799 46.4357 31.4163 46.6661L29.9756 52.6195C30.0625 52.634 30.1395 52.649 30.2049 52.6624C30.269 52.6769 30.3397 52.6876 30.4104 52.6952C30.4852 52.7038 30.5706 52.7074 30.6735 52.7074C30.7766 52.7074 30.9071 52.7069 31.0673 52.7069Z" fill="#4D4D4D"/>
<path fill-rule="evenodd" clip-rule="evenodd" d="M41.4793 55.0738H38.2463L40.9765 43.6449H44.2315L41.4793 55.0738ZM43.052 42.2535C42.6005 42.2535 42.1917 42.1193 41.8288 41.8521C41.4625 41.5861 41.2813 41.1761 41.2813 40.6238C41.2813 40.3202 41.3432 40.0347 41.4663 39.7664C41.5908 39.4981 41.7543 39.2662 41.9588 39.0704C42.1631 38.8757 42.3993 38.72 42.6679 38.6024C42.9381 38.4871 43.2256 38.4297 43.532 38.4297C43.9829 38.4297 44.3901 38.5633 44.7541 38.8311C45.117 39.0999 45.3 39.5099 45.3 40.0588C45.3 40.3637 45.2384 40.6502 45.1139 40.9185C44.9903 41.1868 44.8275 41.4174 44.6231 41.6143C44.4208 41.8092 44.1819 41.9643 43.9138 42.0807C43.6436 42.1976 43.3577 42.2535 43.052 42.2535Z" fill="#4D4D4D"/>
<path fill-rule="evenodd" clip-rule="evenodd" d="M47.0636 40.7994L50.4496 40.2773L49.6181 43.6456H53.2441L52.5893 46.2958H48.9848L48.0248 50.2939C47.9363 50.6272 47.8862 50.9384 47.8722 51.227C47.8565 51.5179 47.8932 51.7673 47.9805 51.9772C48.0674 52.1875 48.2237 52.3496 48.4503 52.4649C48.6758 52.5815 48.9987 52.6399 49.4217 52.6399C49.7701 52.6399 50.1099 52.6072 50.4384 52.5411C50.7646 52.4773 51.0958 52.3872 51.4308 52.2698L51.6718 54.7482C51.2349 54.9075 50.762 55.0449 50.2522 55.1603C49.742 55.2768 49.1374 55.333 48.4389 55.333C47.4348 55.333 46.656 55.1854 46.1015 54.8899C45.5475 54.592 45.156 54.1858 44.9213 53.6713C44.6899 53.1589 44.587 52.5675 44.6162 51.9017C44.6463 51.2341 44.7472 50.5322 44.9213 49.7934L47.0636 40.7994Z" fill="#4D4D4D"/>
<path fill-rule="evenodd" clip-rule="evenodd" d="M53.1017 50.5116C53.1017 49.527 53.2619 48.5992 53.5822 47.7294C53.9015 46.8596 54.362 46.0992 54.9596 45.4461C55.5551 44.7963 56.28 44.2818 57.1332 43.9046C57.9827 43.5283 58.9336 43.3389 59.982 43.3389C60.6379 43.3389 61.2241 43.4001 61.7398 43.524C62.2575 43.6485 62.7262 43.8101 63.1496 44.0123L62.0348 46.5349C61.7436 46.4173 61.441 46.3139 61.1288 46.2194C60.8158 46.1239 60.4339 46.0777 59.9826 46.0777C58.9039 46.0777 58.0507 46.4475 57.4158 47.1847C56.7838 47.923 56.465 48.9163 56.465 50.1628C56.465 50.9016 56.6251 51.4983 56.9465 51.9556C57.2665 52.4121 57.857 52.6392 58.7151 52.6392C59.1386 52.6392 59.5469 52.5952 59.9384 52.5094C60.3325 52.4223 60.6805 52.3135 60.9874 52.1837L61.2284 54.7689C60.8196 54.9271 60.3688 55.0699 59.8741 55.1944C59.3786 55.3152 58.7884 55.377 58.1041 55.377C57.2012 55.377 56.4363 55.2459 55.8113 54.9868C55.1857 54.7239 54.6684 54.3746 54.2612 53.9323C53.8519 53.4892 53.5579 52.9713 53.3762 52.3773C53.1938 51.7854 53.1017 51.162 53.1017 50.5116Z" fill="#4D4D4D"/>
<path fill-rule="evenodd" clip-rule="evenodd" d="M67.4611 55.3782C66.6892 55.3782 66.0194 55.2619 65.451 55.0305C64.8841 54.7988 64.4149 54.4741 64.0432 54.0529C63.6717 53.6338 63.3929 53.1369 63.2024 52.5648C63.0115 51.9934 62.9203 51.3596 62.9203 50.6658C62.9203 49.795 63.0612 48.9246 63.3448 48.0563C63.6274 47.1872 64.0465 46.4058 64.602 45.711C65.1527 45.015 65.8317 44.4462 66.6322 44.0024C67.431 43.5624 68.3505 43.3408 69.3829 43.3408C70.1401 43.3408 70.8072 43.4577 71.3832 43.6891C71.9565 43.9208 72.4291 44.2477 72.8027 44.6667C73.1722 45.0879 73.4532 45.5827 73.642 46.1558C73.8324 46.7262 73.9256 47.3615 73.9256 48.0558C73.9256 48.9241 73.787 49.7944 73.512 50.6653C73.2365 51.5313 72.828 52.3148 72.2887 53.0108C71.7505 53.7056 71.0774 54.2739 70.2689 54.716C69.4605 55.1572 68.5236 55.3782 67.4611 55.3782ZM69.0765 46.0791C68.597 46.0791 68.1736 46.2175 67.8106 46.4912C67.4465 46.7675 67.1408 47.1151 66.8942 47.5343C66.6451 47.955 66.4601 48.4153 66.3355 48.9139C66.212 49.4144 66.151 49.8872 66.151 50.3369C66.151 51.0619 66.2686 51.6263 66.4994 52.0331C66.7341 52.4372 67.1548 52.6405 67.7668 52.6405C68.248 52.6405 68.6693 52.5032 69.0344 52.2269C69.3963 51.9525 69.702 51.605 69.9508 51.1848C70.1982 50.7662 70.3849 50.3048 70.5094 49.8051C70.6318 49.3062 70.6939 48.8306 70.6939 48.382C70.6939 47.6588 70.5768 47.0932 70.3439 46.687C70.111 46.2819 69.688 46.0791 69.0765 46.0791Z" fill="#4D4D4D"/>
<path fill-rule="evenodd" clip-rule="evenodd" d="M77.4478 55.0738H74.2128L76.9429 43.6449H80.1995L77.4478 55.0738ZM79.0183 42.2535C78.5674 42.2535 78.1586 42.1193 77.7962 41.8521C77.4316 41.5861 77.2488 41.1761 77.2488 40.6238C77.2488 40.3202 77.3112 40.0347 77.4348 39.7664C77.5583 39.4981 77.7222 39.2662 77.9267 39.0704C78.13 38.8757 78.3685 38.72 78.6364 38.6024C78.905 38.4871 79.1926 38.4297 79.4983 38.4297C79.9504 38.4297 80.3586 38.5633 80.7221 38.8311C81.0862 39.0999 81.2695 39.5099 81.2695 40.0588C81.2695 40.3637 81.2043 40.6502 81.0819 40.9185C80.9595 41.1868 80.796 41.4174 80.5921 41.6143C80.3873 41.8092 80.1521 41.9643 79.8835 42.0807C79.6128 42.1976 79.3257 42.2535 79.0183 42.2535Z" fill="#4D4D4D"/>
<path fill-rule="evenodd" clip-rule="evenodd" d="M82.5272 44.1665C82.7727 44.0952 83.0467 44.0093 83.3449 43.916C83.6443 43.8226 83.9781 43.7357 84.3513 43.6574C84.7208 43.5769 85.1372 43.5119 85.5956 43.4605C86.0541 43.409 86.5756 43.3838 87.1565 43.3838C88.8608 43.3838 90.0365 43.8774 90.6855 44.8626C91.3332 45.8478 91.4458 47.1957 91.0246 48.9036L89.5382 55.0745H86.2843L87.7255 49.0334C87.8129 48.6562 87.8824 48.2914 87.9331 47.9352C87.985 47.5826 87.9817 47.2714 87.9218 47.0019C87.8651 46.7359 87.7293 46.5184 87.5194 46.3495C87.3058 46.1826 86.9834 46.1 86.546 46.1C86.1246 46.1 85.696 46.145 85.2579 46.2319L83.1389 55.0745H79.8839L82.5272 44.1665Z" fill="#4D4D4D"/>
<path fill-rule="evenodd" clip-rule="evenodd" d="M43.4695 61.8855L42.8352 63.0317H42.1492C42.6324 62.1645 43.1038 61.3661 43.5633 60.6364C44.0228 59.9066 44.4769 59.2176 44.9257 58.5693H45.5405C45.6052 58.8914 45.6645 59.2171 45.7185 59.5449C45.7724 59.8733 45.8254 60.2178 45.8771 60.5785C45.9288 60.939 45.9785 61.3216 46.0259 61.725C46.0735 62.1286 46.123 62.5638 46.1749 63.0323H45.5405C45.519 62.8392 45.4995 62.6449 45.4823 62.4495C45.465 62.2542 45.4455 62.0664 45.424 61.8861L43.4695 61.8855ZM45.3657 61.3828C45.3312 61.0355 45.2914 60.6895 45.2461 60.3461C45.2007 60.0026 45.148 59.6485 45.0874 59.2836C44.9364 59.5026 44.7488 59.7854 44.5243 60.1304C44.3 60.4764 44.0454 60.8935 43.7607 61.3828H45.3657Z" fill="#4D4D4D"/>
<path fill-rule="evenodd" clip-rule="evenodd" d="M48.4686 63.1277C48.1881 63.1277 47.941 63.0869 47.7276 63.0053C47.5139 62.9238 47.336 62.8079 47.1936 62.6577C47.0512 62.5079 46.9443 62.326 46.8733 62.1136C46.802 61.901 46.7664 61.6617 46.7664 61.3956C46.7664 61.0093 46.8279 60.6401 46.9508 60.2881C47.0738 59.9365 47.2486 59.6253 47.4752 59.355C47.7015 59.0844 47.9745 58.8688 48.2938 58.7072C48.6131 58.5463 48.9686 58.4658 49.3617 58.4658C49.6983 58.4658 49.9669 58.5001 50.1676 58.5688C50.3681 58.6375 50.5115 58.7019 50.5979 58.762L50.3389 59.277C50.2393 59.2127 50.105 59.1515 49.9345 59.0936C49.7641 59.0362 49.5624 59.0067 49.3293 59.0067C49.0317 59.0067 48.7641 59.0765 48.5269 59.2165C48.2895 59.356 48.0888 59.5363 47.925 59.7574C47.761 59.9784 47.6358 60.2274 47.5495 60.5043C47.4633 60.7812 47.4202 61.0548 47.4202 61.3253C47.4202 62.1624 47.7846 62.581 48.5139 62.581C48.6691 62.581 48.8084 62.5696 48.9314 62.5482C49.0543 62.5272 49.1633 62.502 49.2581 62.4741C49.3531 62.4462 49.4372 62.4156 49.5105 62.3808C49.5839 62.3465 49.6486 62.3163 49.7048 62.2906L49.7824 62.8315C49.7307 62.8615 49.6627 62.8938 49.5786 62.9281C49.4945 62.9624 49.3962 62.9946 49.2841 63.0253C49.1719 63.0553 49.0467 63.08 48.9086 63.0993C48.7707 63.1186 48.6239 63.1277 48.4686 63.1277Z" fill="#4D4D4D"/>
<path fill-rule="evenodd" clip-rule="evenodd" d="M52.1048 63.1277C51.8244 63.1277 51.5774 63.0869 51.3637 63.0053C51.1503 62.9238 50.9722 62.8079 50.8298 62.6577C50.6875 62.5079 50.5806 62.326 50.5094 62.1136C50.4382 61.901 50.4027 61.6617 50.4027 61.3956C50.4027 61.0093 50.4641 60.6401 50.5872 60.2881C50.7101 59.9365 50.8848 59.6253 51.1113 59.355C51.3379 59.0844 51.6108 58.8688 51.9301 58.7072C52.2494 58.5463 52.6048 58.4658 52.9981 58.4658C53.3346 58.4658 53.6032 58.5001 53.8037 58.5688C54.0044 58.6375 54.1479 58.7019 54.2343 58.762L53.9753 59.277C53.8755 59.2127 53.7412 59.1515 53.5708 59.0936C53.4003 59.0362 53.1986 59.0067 52.9656 59.0067C52.6679 59.0067 52.4005 59.0765 52.1631 59.2165C51.9258 59.356 51.7251 59.5363 51.5612 59.7574C51.3972 59.9784 51.272 60.2274 51.1858 60.5043C51.0994 60.7812 51.0563 61.0548 51.0563 61.3253C51.0563 62.1624 51.421 62.581 52.1501 62.581C52.3055 62.581 52.4446 62.5696 52.5675 62.5482C52.6906 62.5272 52.7996 62.502 52.8944 62.4741C52.9894 62.4462 53.0736 62.4156 53.1468 62.3808C53.2203 62.3465 53.2849 62.3163 53.341 62.2906L53.4187 62.8315C53.3668 62.8615 53.2989 62.8938 53.2148 62.9281C53.1306 62.9624 53.0325 62.9946 52.9203 63.0253C52.8082 63.0553 52.6831 63.08 52.545 63.0993C52.4068 63.1186 52.2601 63.1277 52.1048 63.1277Z" fill="#4D4D4D"/>
<path fill-rule="evenodd" clip-rule="evenodd" d="M53.8428 63.0316L54.9171 58.5693H57.5642L57.4412 59.0909H55.4154L55.0919 60.4367H56.891L56.7681 60.9454H54.9754L54.5935 62.51H56.7681L56.6452 63.0316H53.8428Z" fill="#4D4D4D"/>
<path fill-rule="evenodd" clip-rule="evenodd" d="M59.4378 58.5234C59.9601 58.5234 60.3537 58.6222 60.619 58.8196C60.8844 59.0172 61.0171 59.3048 61.0171 59.6826C61.0171 59.9745 60.9621 60.2272 60.8521 60.4391C60.742 60.6517 60.5856 60.8265 60.3828 60.9645C60.1801 61.1019 59.9363 61.2033 59.6514 61.2698C59.3666 61.3364 59.0495 61.3702 58.7001 61.3702H58.2535L57.8521 63.0314H57.2244L58.2859 58.6271C58.4671 58.5841 58.659 58.5562 58.8618 58.5434C59.0647 58.53 59.2566 58.5234 59.4378 58.5234ZM59.3602 59.0515C59.0538 59.0515 58.8683 59.0602 58.8037 59.0772L58.3764 60.8481H58.7842C58.9654 60.8481 59.1509 60.8324 59.3407 60.7998C59.5306 60.7676 59.7011 60.7107 59.8521 60.6296C60.0032 60.5481 60.1271 60.4353 60.2242 60.291C60.3213 60.1472 60.3699 59.9621 60.3699 59.7346C60.3699 59.49 60.2792 59.315 60.098 59.2093C59.9168 59.1041 59.6709 59.0515 59.3602 59.0515Z" fill="#4D4D4D"/>
<path fill-rule="evenodd" clip-rule="evenodd" d="M64.8459 58.5693L64.7228 59.0909H63.3702L62.4188 63.0316H61.791L62.7424 59.0909H61.3896L61.5126 58.5693H64.8459Z" fill="#4D4D4D"/>
<path fill-rule="evenodd" clip-rule="evenodd" d="M64.2634 63.0316L65.3377 58.5693H67.9848L67.8619 59.0909H65.8362L65.5126 60.4367H67.3117L67.1888 60.9454H65.396L65.0141 62.51H67.1888L67.0658 63.0316H64.2634Z" fill="#4D4D4D"/>
<path fill-rule="evenodd" clip-rule="evenodd" d="M69.8488 58.5234C70.5133 58.5234 71.0095 58.6791 71.3374 58.9903C71.6654 59.3015 71.8293 59.7212 71.8293 60.2491C71.8293 60.6184 71.771 60.9736 71.6545 61.3143C71.5381 61.6562 71.3567 61.9572 71.1109 62.2196C70.865 62.4809 70.551 62.6896 70.1691 62.8441C69.7873 62.9988 69.331 63.076 68.8004 63.076C68.6191 63.076 68.4228 63.0674 68.2114 63.0502C68 63.0331 67.8143 63.0029 67.6547 62.9602L68.6967 58.6265C68.8779 58.5836 69.07 58.5557 69.2728 58.5429C69.4755 58.53 69.6676 58.5234 69.8488 58.5234ZM69.7971 59.0515C69.4735 59.0515 69.2793 59.0602 69.2145 59.0772L68.386 62.5159C68.4207 62.5243 68.4788 62.5319 68.5609 62.5383C68.6428 62.5448 68.7766 62.5479 68.9621 62.5479C69.3029 62.5479 69.6104 62.4917 69.8843 62.3779C70.1585 62.2641 70.3904 62.1053 70.5802 61.9009C70.77 61.6969 70.9167 61.455 71.0202 61.1738C71.1238 60.8926 71.1755 60.5846 71.1755 60.2498C71.1755 59.8721 71.0655 59.5779 70.8455 59.3671C70.6255 59.1572 70.276 59.0515 69.7971 59.0515Z" fill="#4D4D4D"/>
<path fill-rule="evenodd" clip-rule="evenodd" d="M76.6639 63.0316H76.0362L76.5344 60.9583H74.4568L73.9586 63.0316H73.3308L74.4051 58.5693H75.0329L74.58 60.4367H76.6581L77.111 58.5693H77.7387L76.6639 63.0316Z" fill="#4D4D4D"/>
<path fill-rule="evenodd" clip-rule="evenodd" d="M77.6542 63.0316L78.7287 58.5693H81.3757L81.2523 59.0909H79.2264L78.9028 60.4367H80.7021L80.5785 60.9454H78.7857L78.4045 62.51H80.5785L80.455 63.0316H77.6542Z" fill="#4D4D4D"/>
<path fill-rule="evenodd" clip-rule="evenodd" d="M83.2495 58.5234C83.7284 58.5234 84.1081 58.6202 84.3884 58.8133C84.6689 59.0064 84.8086 59.2898 84.8086 59.6627C84.8086 60.0405 84.6981 60.3576 84.4758 60.6131C84.2536 60.8684 83.9419 61.0519 83.5407 61.1631C83.5924 61.2538 83.6529 61.3686 83.7219 61.5081C83.7908 61.6476 83.862 61.8021 83.9355 61.9717C84.0082 62.1407 84.08 62.3172 84.1491 62.4991C84.2181 62.6821 84.2779 62.8586 84.3303 63.0303H83.6895C83.6296 62.8672 83.5665 62.7021 83.5019 62.5346C83.4376 62.3671 83.3714 62.2062 83.305 62.0515C83.2376 61.8971 83.1712 61.7522 83.1038 61.6171C83.0374 61.4817 82.9755 61.3621 82.9193 61.2596C82.8633 61.264 82.8072 61.2671 82.751 61.2693C82.695 61.2714 82.6395 61.2726 82.5827 61.2726H82.0845L81.6638 63.0303H81.036L82.0979 58.626C82.2791 58.5831 82.4707 58.5552 82.6739 58.5422C82.8762 58.53 83.0682 58.5234 83.2495 58.5234ZM83.1717 59.0515C82.8653 59.0515 82.6798 59.0602 82.6146 59.0772L82.2069 60.7648H82.5893C82.7662 60.7648 82.9474 60.7521 83.1329 60.7262C83.3184 60.7005 83.4877 60.65 83.6405 60.575C83.7936 60.4998 83.9188 60.3946 84.0158 60.2595C84.1129 60.1241 84.162 59.945 84.162 59.7217C84.162 59.4814 84.0703 59.3096 83.8869 59.2065C83.7036 59.1031 83.4646 59.0515 83.1717 59.0515Z" fill="#4D4D4D"/>
<path fill-rule="evenodd" clip-rule="evenodd" d="M84.8567 63.0316L85.931 58.5693H88.5781L88.4546 59.0909H86.4288L86.1051 60.4367H87.9044L87.781 60.9454H85.9882L85.6069 62.51H87.781L87.6574 63.0316H84.8567Z" fill="#4D4D4D"/>
<path fill-rule="evenodd" clip-rule="evenodd" d="M17.247 55.3774C22.0112 55.3774 25.8733 51.535 25.8733 46.7951C25.8733 42.0553 22.0112 38.2129 17.247 38.2129C12.4828 38.2129 8.62067 42.0553 8.62067 46.7951C8.62067 51.535 12.4828 55.3774 17.247 55.3774ZM21.0505 45.5717C21.2219 44.4293 20.3477 43.8153 19.1524 43.4055L19.5403 41.8574L18.5938 41.6224L18.2162 43.1296C17.9676 43.0679 17.7119 43.0094 17.4574 42.952L17.8376 41.4351L16.8915 41.2L16.5032 42.7475C16.2972 42.7008 16.0949 42.6548 15.8986 42.6058L15.8997 42.601L14.5939 42.277L14.342 43.2831C14.342 43.2831 15.0443 43.4431 15.0297 43.4532C15.4132 43.5488 15.4828 43.8008 15.4709 44.001L15.0292 45.7638C15.0556 45.7701 15.0896 45.7793 15.1279 45.7955C15.0961 45.7869 15.0626 45.7788 15.0276 45.7701L14.4084 48.2407C14.3615 48.356 14.2423 48.53 13.9742 48.4639C13.9839 48.4774 13.286 48.2932 13.286 48.2932L12.8157 49.3719L14.0476 49.6772C14.2768 49.7341 14.5017 49.7941 14.7223 49.8505L14.3307 51.4157L15.2762 51.6506L15.6645 50.1022C15.9229 50.1713 16.1737 50.2363 16.4191 50.2969L16.0324 51.8381L16.9789 52.0731L17.371 50.511C18.9858 50.8148 20.1998 50.6924 20.7107 49.2393C21.1227 48.0689 20.6901 47.3944 19.8407 46.9544C20.4598 46.8127 20.9258 46.4082 21.0505 45.5717ZM18.887 48.59C18.5943 49.7598 16.6149 49.1272 15.973 48.9682L16.493 46.895C17.1348 47.0543 19.1929 47.3698 18.887 48.59ZM19.18 45.555C18.9131 46.6186 17.2653 46.0782 16.7308 45.9462L17.2022 44.065C17.7367 44.1981 19.4577 44.4453 19.18 45.555Z" fill="#F7931A"/>
</g>
<defs>
<clipPath id="clip0_272_1262">
<rect width="100" height="100" fill="white"/>
</clipPath>
</defs>
</svg>
