<svg width="100" height="100" viewBox="0 0 100 100" fill="none" xmlns="http://www.w3.org/2000/svg">
<g clip-path="url(#clip0_272_1253)">
<path d="M93.1034 16.3789H6.89654C3.56379 16.3789 0.862061 19.0806 0.862061 22.4134V77.5858C0.862061 80.9186 3.56379 83.6203 6.89654 83.6203H93.1034C96.4362 83.6203 99.1379 80.9186 99.1379 77.5858V22.4134C99.1379 19.0806 96.4362 16.3789 93.1034 16.3789Z" fill="white" stroke="#F3F3F3" stroke-width="13.7931"/>
<path d="M59.1555 65.4766H41.3088V33.6416H59.1555V65.4766Z" fill="#FF5F00"/>
<path d="M42.4523 49.557C42.4523 43.099 45.4985 37.3464 50.2424 33.6394C46.7733 30.9286 42.3952 29.3105 37.6369 29.3105C26.3726 29.3105 17.2414 38.3751 17.2414 49.557C17.2414 60.7387 26.3726 69.8032 37.6369 69.8032C42.3952 69.8032 46.7733 68.1852 50.2424 65.4744C45.4985 61.7673 42.4523 56.0147 42.4523 49.557Z" fill="#EB001B"/>
<path d="M83.2251 49.557C83.2251 60.7387 74.0939 69.8032 62.8296 69.8032C58.0714 69.8032 53.6932 68.1852 50.2229 65.4744C54.9681 61.7673 58.0143 56.0147 58.0143 49.557C58.0143 43.099 54.9681 37.3464 50.2229 33.6394C53.6932 30.9286 58.0714 29.3105 62.8296 29.3105C74.0939 29.3105 83.2251 38.3751 83.2251 49.557Z" fill="#F79E1B"/>
</g>
<defs>
<clipPath id="clip0_272_1253">
<rect width="100" height="100" fill="white"/>
</clipPath>
</defs>
</svg>
