<svg width="100" height="100" viewBox="0 0 100 100" fill="none" xmlns="http://www.w3.org/2000/svg">
<g clip-path="url(#clip0_272_1256)">
<path d="M99.9997 49.9997C99.9997 77.6141 77.6144 100 50.0003 100C22.3859 100 0.000305176 77.6141 0.000305176 49.9997C0.000305176 22.3856 22.3859 0 50.0003 0C77.6141 0 99.9997 22.3856 99.9997 49.9997Z" fill="#BEBEBE"/>
<path d="M89.3842 50.0001C89.3842 71.75 71.7514 89.3843 50.0003 89.3843C28.2494 89.3843 10.6154 71.75 10.6154 50.0001C10.6154 28.2483 28.2494 10.6152 50.0003 10.6152C71.7517 10.6152 89.3842 28.248 89.3842 50.0001Z" fill="#BEBEBE"/>
<path d="M47.0779 63.357L50.3256 51.1282L58.0144 48.3192L59.9269 41.1324L59.8616 40.9541L52.293 43.7191L57.7462 23.1855H42.2808L35.1492 49.9823L29.1949 52.1575L27.2274 59.5667L33.1772 57.3933L28.9741 73.1859H70.1339L72.7725 63.357H47.0779Z" fill="white"/>
</g>
<defs>
<clipPath id="clip0_272_1256">
<rect width="100" height="100" fill="white"/>
</clipPath>
</defs>
</svg>
