<?xml version="1.0" encoding="UTF-8"?> <svg xmlns="http://www.w3.org/2000/svg" width="190" height="150" viewBox="0 0 190 150" fill="none"><path d="M0 8C0 3.58172 3.58172 0 8 0H182C186.418 0 190 3.58172 190 8V150H0V8Z" fill="#A0E86E"></path><g clip-path="url(#clip0_1183_1799)"><path d="M100.738 63.359H107.236L103.966 86.681H97.468L100.738 63.359ZM92.545 63.359L88.16 76.794L86.247 63.359H81.702L75.96 76.754L75.243 63.36H68.944L71.137 86.682H76.36L82.818 71.932L85.09 86.682H90.233L98.725 63.359H92.545ZM147.103 76.914H131.674C131.754 79.944 133.568 81.937 136.239 81.937C138.253 81.937 139.847 80.86 141.083 78.807L146.291 81.175C144.501 84.702 140.729 87 136.08 87C129.741 87 125.535 82.734 125.535 75.877C125.535 68.342 130.478 63 137.455 63C143.595 63 147.462 67.146 147.462 73.605C147.462 74.681 147.342 75.757 147.103 76.914ZM141.323 72.448C141.323 69.738 139.807 68.023 137.376 68.023C134.864 68.023 132.791 69.817 132.232 72.448H141.323ZM48.632 70.387L42 78.139H53.844L55.174 74.484H50.1L53.2 70.898L53.21 70.803L51.194 67.332H60.266L53.234 86.682H58.046L66.538 63.358H44.6L48.633 70.386L48.632 70.387ZM117.8 68.023C120.092 68.023 122.1 69.256 123.855 71.369L124.776 64.794C123.143 63.688 120.93 63 118 63C112.18 63 108.91 66.409 108.91 70.734C108.91 73.734 110.585 75.568 113.336 76.754L114.651 77.352C117.103 78.399 117.761 78.917 117.761 80.023C117.761 81.169 116.655 81.897 114.971 81.897C112.189 81.907 109.937 80.482 108.243 78.05L107.303 84.749C109.234 86.22 111.708 87 114.97 87C120.502 87 123.9 83.81 123.9 79.385C123.9 76.375 122.565 74.442 119.196 72.927L117.761 72.249C115.767 71.362 115.09 70.874 115.09 69.897C115.09 68.841 116.017 68.023 117.8 68.023Z" fill="#163300"></path></g><defs><clipPath id="clip0_1183_1799"><rect width="106" height="24" fill="white" transform="translate(42 63)"></rect></clipPath></defs></svg> 