<svg width="100" height="100" viewBox="0 0 100 100" fill="none" xmlns="http://www.w3.org/2000/svg">
<g clip-path="url(#clip0_272_1247)">
<path d="M91.4286 16.4287H8.57142C4.23204 16.4287 0.714279 19.9465 0.714279 24.2859V75.7144C0.714279 80.0538 4.23204 83.5716 8.57142 83.5716H91.4286C95.7679 83.5716 99.2857 80.0538 99.2857 75.7144V24.2859C99.2857 19.9465 95.7679 16.4287 91.4286 16.4287Z" fill="white" stroke="#D9D9D9" stroke-width="11.4286"/>
<path fill-rule="evenodd" clip-rule="evenodd" d="M30.3579 62.1664H24.2999L19.757 44.8353C19.5414 44.0381 19.0836 43.3333 18.4101 43.0011C16.7294 42.1664 14.8774 41.502 12.8571 41.167V40.4997H22.6161C23.9631 40.4997 24.9733 41.502 25.1416 42.6661L27.4987 55.1676L33.5539 40.4997H39.4434L30.3579 62.1664ZM42.8107 62.1664H37.0894L41.8006 40.4997H47.5219L42.8107 62.1664ZM54.9239 46.502C55.0923 45.3351 56.1024 44.6679 57.281 44.6679C59.133 44.5003 61.1503 44.8354 62.834 45.6673L63.8441 41.0023C62.1604 40.335 60.3086 40 58.6279 40C53.0749 40 49.0341 43.0011 49.0341 47.1664C49.0341 50.3351 51.8963 51.9989 53.9167 53.0011C56.1024 54.0006 56.9443 54.6679 56.7759 55.6673C56.7759 57.1664 55.0923 57.8337 53.4116 57.8337C51.3913 57.8337 49.3709 57.334 47.5219 56.4991L46.5117 61.167C48.532 61.9989 50.7179 62.334 52.7381 62.334C58.9646 62.4986 62.834 59.5003 62.834 55C62.834 49.3327 54.9239 49.0006 54.9239 46.502ZM82.8571 62.1664L78.3143 40.4997H73.4349C72.4246 40.4997 71.4144 41.167 71.0777 42.1664L62.6656 62.1664H68.5553L69.7309 59.0006H76.9674L77.6409 62.1664H82.8571ZM74.2766 46.3346L75.9573 54.5003H71.2461L74.2766 46.3346Z" fill="#172B85"/>
</g>
<defs>
<clipPath id="clip0_272_1247">
<rect width="100" height="100" fill="white"/>
</clipPath>
</defs>
</svg>
