<svg width="100" height="100" viewBox="0 0 100 100" fill="none" xmlns="http://www.w3.org/2000/svg">
<g clip-path="url(#clip0_272_1250)">
<path d="M6.24991 14.0605H93.7501C97.2001 14.0605 100 16.8604 100 20.3135V79.6886C100 83.1386 97.2001 85.9385 93.7501 85.9385H6.24991C2.79678 85.9388 0 83.1386 0 79.6889V20.3135C0 16.8604 2.79987 14.0605 6.24991 14.0605Z" fill="#26A6D1"/>
<path d="M16.125 39.0605L6.24991 60.9138H18.0718L19.5374 57.4295H22.8873L24.3529 60.9138H37.3655V58.2545L38.525 60.9138H45.2561L46.4156 58.1983V60.9138H73.4782L76.7689 57.52L79.8502 60.9138L93.7501 60.9419L83.8438 50.0482L93.7501 39.0605H80.0657L76.8625 42.3917L73.8782 39.0605H44.4376L41.9096 44.7011L39.3222 39.0605H27.525V41.6294L26.2126 39.0605H16.125ZM18.4125 42.1637H24.175L30.7252 56.9826V42.1637H37.0378L42.097 52.7888L46.7597 42.1637H53.0408V57.8449H49.2189L49.1877 45.5572L43.6157 57.8449H40.1969L34.5937 45.5572V57.8449H26.7312L25.2406 54.3294H17.1875L15.7 57.8418H11.4874L18.4125 42.1637ZM56.5375 42.1637H72.0781L76.8313 47.298L81.7376 42.1637H86.4908L79.2689 50.0451L86.4908 57.8356H81.522L76.7689 52.6417L71.8375 57.8356H56.5375V42.1637ZM21.2158 44.8169L18.5626 51.0795H23.8659L21.2158 44.8169ZM60.3752 45.4105V48.2731H68.8532V51.4637H60.3752V54.5889H69.8846L74.3032 49.9858L70.072 45.4078H60.3752V45.4105Z" fill="white"/>
</g>
<defs>
<clipPath id="clip0_272_1250">
<rect width="100" height="100" fill="white"/>
</clipPath>
</defs>
</svg>
